<svg width="282" height="282" viewBox="0 0 282 282" fill="none" xmlns="http://www.w3.org/2000/svg">
    <path d="M0 215.674H282V215.815H0V215.674Z" fill="#FAFAFA" />
    <path d="M43.3039 221.81H57.308V221.951H43.3039V221.81Z" fill="#E0E0E0" />
    <path d="M34.4322 221.737H39.1642V221.878H34.4322V221.737Z" fill="#E0E0E0" />
    <path d="M94.735 222.684H124.057V222.825H94.735V222.684Z" fill="#E0E0E0" />
    <path d="M130.978 224.212H135.349V224.353H130.978V224.212Z" fill="#E0E0E0" />
    <path d="M218.86 219.751H226.395V219.892H218.86V219.751Z" fill="#E0E0E0" />
    <path d="M177.513 219.751H215.73V219.892H177.513V219.751Z" fill="#E0E0E0" />
    <path d="M210.09 223.158H236.677V223.299H210.09V223.158Z" fill="#E0E0E0" />
    <path
        d="M148.332 190.519H257.235C258.088 190.518 258.906 190.178 259.508 189.574C260.111 188.97 260.45 188.152 260.45 187.299V34.2123C260.442 33.364 260.1 32.553 259.498 31.9553C258.897 31.3575 258.083 31.0215 257.235 31.02H148.332C147.478 31.02 146.659 31.3593 146.055 31.9633C145.451 32.5672 145.112 33.3863 145.112 34.2405V187.299C145.112 188.153 145.451 188.972 146.055 189.576C146.659 190.18 147.478 190.519 148.332 190.519ZM257.235 31.1328C258.051 31.1343 258.832 31.4594 259.409 32.0368C259.985 32.6141 260.309 33.3965 260.309 34.2123V187.299C260.309 188.115 259.985 188.897 259.409 189.474C258.832 190.052 258.051 190.377 257.235 190.378H148.332C147.516 190.377 146.733 190.052 146.156 189.475C145.579 188.897 145.254 188.115 145.253 187.299V34.2123C145.254 33.396 145.579 32.6136 146.156 32.0364C146.733 31.4592 147.516 31.1343 148.332 31.1328H257.235Z"
        fill="#E0E0E0" />
    <path
        d="M26.3332 190.519H135.242C136.095 190.518 136.914 190.178 137.517 189.574C138.121 188.971 138.461 188.152 138.462 187.299V34.2123C138.453 33.3635 138.11 32.5525 137.507 31.9549C136.904 31.3574 136.09 31.0215 135.242 31.02H26.3332C25.4859 31.023 24.6739 31.3597 24.0732 31.9572C23.4725 32.5548 23.1314 33.365 23.124 34.2123V187.299C23.124 188.151 23.4618 188.968 24.0633 189.572C24.6648 190.176 25.481 190.516 26.3332 190.519ZM135.242 31.1328C136.058 31.1343 136.84 31.4592 137.417 32.0364C137.995 32.6136 138.32 33.396 138.321 34.2123V187.299C138.32 188.115 137.995 188.897 137.417 189.475C136.84 190.052 136.058 190.377 135.242 190.378H26.3332C25.5169 190.377 24.7345 190.052 24.1573 189.475C23.5802 188.897 23.2552 188.115 23.2538 187.299V34.2123C23.2552 33.396 23.5802 32.6136 24.1573 32.0364C24.7345 31.4592 25.5169 31.1343 26.3332 31.1328H135.242Z"
        fill="#E0E0E0" />
    <path d="M89.253 215.674H69.3269V179.51H89.253V215.674Z" fill="#E0E0E0" />
    <path d="M45.5543 179.51H69.3269V215.673H45.5543V179.51Z" fill="#EBEBEB" />
    <g style="mix-blend-mode:multiply" opacity="0.7">
        <path d="M89.253 184.208H45.3456V182.572H89.253V184.208Z" fill="#E0E0E0" />
    </g>
    <path d="M90.3528 183.255H69.3269V175.72H90.3528V183.255Z" fill="#E0E0E0" />
    <path d="M44.4545 175.726H69.3269V183.261H44.4545V175.726Z" fill="#EBEBEB" />
    <path d="M172.55 41.7305H239.627V121.762H172.55V41.7305Z" fill="#E0E0E0" />
    <path d="M169.476 41.7305H238.188V121.762H169.476V41.7305Z" fill="#EBEBEB" />
    <path d="M172.55 121.762H239.627V127.464H172.55V121.762Z" fill="#E0E0E0" />
    <path d="M164.366 121.762H233.079V127.464H164.366V121.762Z" fill="#EBEBEB" />
    <path d="M173.774 117.464V46.0278L233.891 46.0278V117.464H173.774Z" fill="#F5F5F5" />
    <path d="M226.514 117.464L201.297 46.0278H189.397L214.608 117.464H226.514Z" fill="#FAFAFA" />
    <path
        d="M231.906 93.2291C231.987 93.2276 232.064 93.1943 232.121 93.1362C232.178 93.0782 232.21 93.0002 232.21 92.9189V48.8197C232.21 48.7389 232.178 48.6615 232.121 48.6043C232.064 48.5472 231.986 48.5151 231.906 48.5151C231.824 48.5151 231.746 48.547 231.688 48.604C231.63 48.6609 231.597 48.7384 231.595 48.8197V92.9189C231.595 93.0011 231.628 93.08 231.686 93.1382C231.744 93.1964 231.823 93.2291 231.906 93.2291Z"
        fill="#EBEBEB" />
    <path d="M212.053 117.464L186.836 46.0278H182.195L207.411 117.464H212.053Z" fill="#FAFAFA" />
    <path d="M173.78 117.464V46.0278H174.327V117.464H173.78Z" fill="#E0E0E0" />
    <path d="M168.467 51.5212H235.538L235.932 47.6973H168.862L168.467 51.5212Z" fill="#E0E0E0" />
    <path d="M168.467 54.3247H235.538L235.932 50.4951H168.862L168.467 54.3247Z" fill="#E0E0E0" />
    <path d="M168.467 57.686H235.538L235.932 53.8564H168.862L168.467 57.686Z" fill="#E0E0E0" />
    <path d="M168.467 61.4255H235.538L235.932 57.6016H168.862L168.467 61.4255Z" fill="#E0E0E0" />
    <path d="M168.467 65.9092H235.538L235.932 62.0796H168.862L168.467 65.9092Z" fill="#E0E0E0" />
    <path d="M168.467 70.9455H235.538L235.932 67.1216H168.862L168.467 70.9455Z" fill="#E0E0E0" />
    <path d="M50.557 41.7305H117.634V121.762H50.557V41.7305Z" fill="#E0E0E0" />
    <path d="M47.4888 41.7305H116.201V121.762H47.4888V41.7305Z" fill="#EBEBEB" />
    <path d="M50.557 121.762H117.634V127.464H50.557V121.762Z" fill="#E0E0E0" />
    <path d="M42.3733 121.762H111.085V127.464H42.3733V121.762Z" fill="#EBEBEB" />
    <path d="M51.7809 117.464L51.7809 46.0278L111.898 46.0278V117.464H51.7809Z" fill="#F5F5F5" />
    <path d="M104.521 117.464L79.3041 46.0278H67.4037L92.6201 117.464H104.521Z" fill="#FAFAFA" />
    <path
        d="M109.912 93.2291C109.994 93.2276 110.071 93.1943 110.128 93.1362C110.185 93.0782 110.217 93.0002 110.217 92.9189V48.8197C110.217 48.7389 110.185 48.6615 110.128 48.6043C110.071 48.5472 109.993 48.5151 109.912 48.5151C109.832 48.5151 109.754 48.5472 109.697 48.6043C109.64 48.6615 109.608 48.7389 109.608 48.8197V92.9189C109.608 93.0002 109.64 93.0782 109.697 93.1362C109.754 93.1943 109.831 93.2276 109.912 93.2291Z"
        fill="#EBEBEB" />
    <path d="M90.0596 117.464L64.8431 46.0278H60.2071L85.4179 117.464H90.0596Z" fill="#FAFAFA" />
    <path d="M51.7865 117.464L51.7865 46.0278H52.3336L52.3336 117.464H51.7865Z" fill="#E0E0E0" />
    <path d="M46.4736 51.5212H113.545L113.945 47.6973H46.8684L46.4736 51.5212Z" fill="#E0E0E0" />
    <path d="M46.4736 54.3247H113.545L113.945 50.4951H46.8684L46.4736 54.3247Z" fill="#E0E0E0" />
    <path d="M46.4736 57.686H113.545L113.945 53.8564H46.8684L46.4736 57.686Z" fill="#E0E0E0" />
    <path d="M46.4736 61.4255H113.545L113.945 57.6016H46.8684L46.4736 61.4255Z" fill="#E0E0E0" />
    <path d="M46.4736 65.9092H113.545L113.945 62.0796H46.8684L46.4736 65.9092Z" fill="#E0E0E0" />
    <path d="M46.4736 70.9455H113.545L113.945 67.1216H46.8684L46.4736 70.9455Z" fill="#E0E0E0" />
    <path d="M102.625 164.947H116.02V215.673H102.625V164.947Z" fill="#E0E0E0" />
    <path d="M105.175 215.674H102.631V209.458H107.842L105.175 215.674Z" fill="#F5F5F5" />
    <path d="M232.616 164.947H246.011V215.673H232.616V164.947Z" fill="#E0E0E0" />
    <path d="M102.625 164.947H234.838V212.256H102.625V164.947Z" fill="#F5F5F5" />
    <path d="M167.88 167.316V201.1H104.599V167.316H167.88Z" fill="#E0E0E0" />
    <path d="M232.864 167.316V201.1H169.583V167.316H232.864Z" fill="#E0E0E0" />
    <path d="M104.605 208.24V204.478H167.886V208.24H104.605Z" fill="#E0E0E0" />
    <path d="M169.589 208.246V204.484H232.87V208.246H169.589Z" fill="#E0E0E0" />
    <path
        d="M178.94 169.336H223.496C224.486 169.336 225.465 169.137 226.375 168.749C227.285 168.361 228.107 167.793 228.792 167.08H173.622C174.309 167.796 175.135 168.366 176.049 168.754C176.964 169.141 177.947 169.339 178.94 169.336Z"
        fill="#F5F5F5" />
    <path
        d="M113.719 169.336H158.275C159.265 169.336 160.244 169.137 161.154 168.749C162.064 168.361 162.886 167.793 163.571 167.08H108.401C109.087 167.798 109.913 168.368 110.827 168.756C111.742 169.144 112.726 169.341 113.719 169.336Z"
        fill="#F5F5F5" />
    <path d="M232.295 215.674H234.844V209.458H229.633L232.295 215.674Z" fill="#F5F5F5" />
    <g style="mix-blend-mode:multiply" opacity="0.4">
        <path d="M137.864 133.803H152.776V164.947H137.864V133.803Z" fill="#E0E0E0" />
    </g>
    <path d="M125.338 164.947H150.577L152.951 131.316H127.718L125.338 164.947Z" fill="#E0E0E0" />
    <path d="M122.467 164.947H149.86L152.235 131.316H124.847L122.467 164.947Z" fill="#F5F5F5" />
    <path d="M148.591 163.662L150.785 132.602H126.11L123.911 163.662H148.591Z" fill="#FAFAFA" />
    <path d="M142.619 156.707L143.831 139.556H132.083L130.871 156.707H142.619Z" fill="#F5F5F5" />
    <path
        d="M192.127 159.426C188.507 159.426 185.573 156.492 185.573 152.872C185.573 149.253 188.507 146.318 192.127 146.318C195.746 146.318 198.68 149.253 198.68 152.872C198.68 156.492 195.746 159.426 192.127 159.426Z"
        fill="#EBEBEB" />
    <path
        d="M180.903 162.55C177.283 162.55 174.349 159.616 174.349 155.997C174.349 152.377 177.283 149.443 180.903 149.443C184.522 149.443 187.457 152.377 187.457 155.997C187.457 159.616 184.522 162.55 180.903 162.55Z"
        fill="#EBEBEB" />
    <path
        d="M169.751 157.302C167.519 156.383 166.455 153.828 167.375 151.596C168.294 149.364 170.849 148.3 173.081 149.219C175.313 150.139 176.377 152.694 175.458 154.926C174.538 157.158 171.983 158.222 169.751 157.302Z"
        fill="#EBEBEB" />
    <path
        d="M181.247 149.611C180.861 147.228 182.48 144.983 184.862 144.597C187.245 144.211 189.49 145.83 189.876 148.213C190.262 150.596 188.643 152.841 186.26 153.227C183.877 153.613 181.633 151.994 181.247 149.611Z"
        fill="#EBEBEB" />
    <path
        d="M202.606 154.824C202.606 154.824 202.092 164.948 182.426 164.948C162.759 164.948 162.246 154.824 162.246 154.824H202.606Z"
        fill="#E0E0E0" />
    <path
        d="M220.767 161.479C220.767 161.479 227.174 150.436 218.285 141.643C218.285 141.643 215.967 143.155 216.029 145.191C216.091 147.227 218.516 147.734 217.992 149.432C217.467 151.13 215.172 152.816 216.666 154.198C218.161 155.58 216.424 156.843 216.525 158.563C216.627 160.283 220.767 161.479 220.767 161.479Z"
        fill="#E0E0E0" />
    <path
        d="M220.281 162.488C220.281 162.488 217.687 149.99 228.894 144.44C228.894 144.44 230.62 146.612 229.943 148.529C229.266 150.447 226.784 150.159 226.745 151.913C226.705 153.667 228.38 155.997 226.497 156.848C224.613 157.7 225.893 159.443 225.256 161.039C224.619 162.635 220.281 162.488 220.281 162.488Z"
        fill="#E0E0E0" />
    <path
        d="M230.112 156.708C230.112 156.708 229.898 164.948 221.731 164.948C213.564 164.948 213.35 156.708 213.35 156.708H230.112Z"
        fill="#EBEBEB" />
    <path
        d="M141 241.144C80.6055 241.144 31.6461 238.286 31.6461 234.759C31.6461 231.233 80.6055 228.375 141 228.375C201.395 228.375 250.354 231.233 250.354 234.759C250.354 238.286 201.395 241.144 141 241.144Z"
        fill="#F5F5F5" />
    <path
        d="M180.226 153.657C180.561 153.635 180.874 153.486 181.103 153.242C181.332 152.997 181.46 152.675 181.46 152.34C181.46 152.005 181.332 151.682 181.103 151.437C180.874 151.193 180.561 151.045 180.226 151.023C177 151.023 174.282 146.404 174.282 140.933C174.26 140.598 174.111 140.285 173.867 140.056C173.622 139.827 173.3 139.699 172.965 139.699C172.63 139.699 172.307 139.827 172.062 140.056C171.818 140.285 171.67 140.598 171.648 140.933C171.648 148.067 175.404 153.657 180.226 153.657Z"
        fill="#407BFF" />
    <path
        d="M160.323 153.657C160.657 153.635 160.971 153.486 161.2 153.242C161.429 152.997 161.556 152.675 161.556 152.34C161.556 152.005 161.429 151.682 161.2 151.437C160.971 151.193 160.657 151.045 160.323 151.023C157.097 151.023 154.378 146.404 154.378 140.933C154.356 140.598 154.208 140.285 153.963 140.056C153.719 139.827 153.396 139.699 153.061 139.699C152.726 139.699 152.404 139.827 152.159 140.056C151.914 140.285 151.766 140.598 151.744 140.933C151.716 148.067 155.512 153.657 160.323 153.657Z"
        fill="#407BFF" />
    <path
        d="M140.436 153.657C140.77 153.635 141.084 153.486 141.313 153.242C141.542 152.997 141.67 152.675 141.67 152.34C141.67 152.005 141.542 151.682 141.313 151.437C141.084 151.193 140.77 151.045 140.436 151.023C137.216 151.023 134.491 146.404 134.491 140.933C134.491 140.584 134.353 140.25 134.107 140.004C133.86 139.757 133.526 139.619 133.177 139.619C132.829 139.619 132.495 139.757 132.248 140.004C132.002 140.25 131.863 140.584 131.863 140.933C131.846 148.067 135.608 153.657 140.436 153.657Z"
        fill="#407BFF" />
    <path
        d="M120.516 153.657C120.696 153.668 120.876 153.643 121.046 153.582C121.216 153.521 121.372 153.426 121.504 153.303C121.636 153.179 121.741 153.03 121.813 152.865C121.884 152.699 121.922 152.52 121.922 152.34C121.922 152.159 121.884 151.98 121.813 151.815C121.741 151.649 121.636 151.5 121.504 151.376C121.372 151.253 121.216 151.158 121.046 151.097C120.876 151.036 120.696 151.011 120.516 151.023C117.295 151.023 114.571 146.404 114.571 140.933C114.571 140.584 114.433 140.25 114.186 140.004C113.94 139.757 113.605 139.619 113.257 139.619C112.908 139.619 112.574 139.757 112.328 140.004C112.081 140.25 111.943 140.584 111.943 140.933C111.943 148.067 115.71 153.657 120.516 153.657Z"
        fill="#407BFF" />
    <path
        d="M100.618 153.657C100.952 153.635 101.266 153.486 101.495 153.242C101.724 152.997 101.851 152.675 101.851 152.34C101.851 152.005 101.724 151.682 101.495 151.437C101.266 151.193 100.952 151.045 100.618 151.023C97.3916 151.023 94.6731 146.404 94.6731 140.933C94.6512 140.598 94.5029 140.285 94.2584 140.056C94.0138 139.827 93.6913 139.699 93.3562 139.699C93.0211 139.699 92.6985 139.827 92.454 140.056C92.2094 140.285 92.0611 140.598 92.0392 140.933C92.0392 148.067 95.8067 153.657 100.618 153.657Z"
        fill="#407BFF" />
    <path
        d="M80.7141 153.657C81.0485 153.635 81.362 153.486 81.5911 153.242C81.8202 152.997 81.9476 152.675 81.9476 152.34C81.9476 152.005 81.8202 151.682 81.5911 151.437C81.362 151.193 81.0485 151.045 80.7141 151.023C77.4936 151.023 74.7695 146.404 74.7695 140.933C74.7476 140.598 74.5994 140.285 74.3548 140.056C74.1102 139.827 73.7877 139.699 73.4526 139.699C73.1175 139.699 72.795 139.827 72.5504 140.056C72.3058 140.285 72.1575 140.598 72.1357 140.933C72.1357 148.067 75.9032 153.657 80.7141 153.657Z"
        fill="#407BFF" />
    <g opacity="0.3">
        <path
            d="M180.226 153.657C180.561 153.635 180.874 153.486 181.103 153.242C181.332 152.997 181.46 152.675 181.46 152.34C181.46 152.005 181.332 151.682 181.103 151.437C180.874 151.193 180.561 151.045 180.226 151.023C177 151.023 174.282 146.404 174.282 140.933C174.26 140.598 174.111 140.285 173.867 140.056C173.622 139.827 173.3 139.699 172.965 139.699C172.63 139.699 172.307 139.827 172.062 140.056C171.818 140.285 171.67 140.598 171.648 140.933C171.648 148.067 175.404 153.657 180.226 153.657Z"
            fill="black" />
        <path
            d="M160.323 153.657C160.657 153.635 160.971 153.486 161.2 153.242C161.429 152.997 161.556 152.675 161.556 152.34C161.556 152.005 161.429 151.682 161.2 151.437C160.971 151.193 160.657 151.045 160.323 151.023C157.097 151.023 154.378 146.404 154.378 140.933C154.356 140.598 154.208 140.285 153.963 140.056C153.719 139.827 153.396 139.699 153.061 139.699C152.726 139.699 152.403 139.827 152.159 140.056C151.914 140.285 151.766 140.598 151.744 140.933C151.716 148.067 155.512 153.657 160.323 153.657Z"
            fill="black" />
        <path
            d="M140.436 153.657C140.77 153.635 141.084 153.486 141.313 153.242C141.542 152.997 141.67 152.675 141.67 152.34C141.67 152.005 141.542 151.682 141.313 151.437C141.084 151.193 140.77 151.045 140.436 151.023C137.216 151.023 134.491 146.404 134.491 140.933C134.491 140.584 134.353 140.25 134.107 140.004C133.86 139.757 133.526 139.619 133.177 139.619C132.829 139.619 132.495 139.757 132.248 140.004C132.002 140.25 131.863 140.584 131.863 140.933C131.846 148.067 135.608 153.657 140.436 153.657Z"
            fill="black" />
        <path
            d="M120.516 153.657C120.696 153.668 120.876 153.643 121.046 153.582C121.216 153.521 121.372 153.426 121.504 153.303C121.636 153.179 121.741 153.03 121.813 152.865C121.884 152.699 121.922 152.52 121.922 152.34C121.922 152.159 121.884 151.98 121.813 151.815C121.741 151.649 121.636 151.5 121.504 151.376C121.372 151.253 121.216 151.158 121.046 151.097C120.876 151.036 120.696 151.011 120.516 151.023C117.295 151.023 114.571 146.404 114.571 140.933C114.571 140.584 114.433 140.25 114.186 140.004C113.94 139.757 113.605 139.619 113.257 139.619C112.908 139.619 112.574 139.757 112.328 140.004C112.081 140.25 111.943 140.584 111.943 140.933C111.943 148.067 115.71 153.657 120.516 153.657Z"
            fill="black" />
        <path
            d="M100.618 153.657C100.952 153.635 101.265 153.486 101.495 153.242C101.724 152.997 101.851 152.675 101.851 152.34C101.851 152.005 101.724 151.682 101.495 151.437C101.265 151.193 100.952 151.045 100.618 151.023C97.3915 151.023 94.673 146.404 94.673 140.933C94.6511 140.598 94.5028 140.285 94.2583 140.056C94.0137 139.827 93.6911 139.699 93.356 139.699C93.021 139.699 92.6984 139.827 92.4538 140.056C92.2093 140.285 92.061 140.598 92.0391 140.933C92.0391 148.067 95.8066 153.657 100.618 153.657Z"
            fill="black" />
        <path
            d="M80.714 153.657C81.0483 153.635 81.3619 153.486 81.591 153.242C81.82 152.997 81.9475 152.675 81.9475 152.34C81.9475 152.005 81.82 151.682 81.591 151.437C81.3619 151.193 81.0483 151.045 80.714 151.023C77.4935 151.023 74.7694 146.404 74.7694 140.933C74.7475 140.598 74.5992 140.285 74.3547 140.056C74.1101 139.827 73.7876 139.699 73.4525 139.699C73.1174 139.699 72.7948 139.827 72.5503 140.056C72.3057 140.285 72.1574 140.598 72.1355 140.933C72.1355 148.067 75.903 153.657 80.714 153.657Z"
            fill="black" />
    </g>
    <path
        d="M192.696 142.28H64.5668C62.8488 142.315 61.2025 142.975 59.9366 144.137C58.6708 145.299 57.8726 146.883 57.6916 148.592L50.5965 228.584C50.5101 229.386 50.5952 230.198 50.8461 230.966C51.097 231.733 51.5079 232.438 52.0518 233.035C52.5956 233.631 53.2599 234.106 54.0007 234.426C54.7416 234.747 55.5421 234.907 56.3493 234.895H184.484C186.202 234.858 187.847 234.197 189.112 233.036C190.377 231.874 191.176 230.292 191.36 228.584L198.449 148.592C198.536 147.789 198.452 146.977 198.201 146.209C197.951 145.441 197.54 144.736 196.996 144.139C196.452 143.542 195.787 143.068 195.046 142.747C194.305 142.427 193.504 142.268 192.696 142.28Z"
        fill="#407BFF" />
    <path opacity="0.4"
        d="M192.696 142.28H64.5668C62.8488 142.315 61.2025 142.975 59.9366 144.137C58.6708 145.299 57.8726 146.883 57.6916 148.592L50.5965 228.584C50.5101 229.386 50.5952 230.198 50.8461 230.966C51.097 231.733 51.5079 232.438 52.0518 233.035C52.5956 233.631 53.2599 234.106 54.0007 234.426C54.7416 234.747 55.5421 234.907 56.3493 234.895H184.484C186.202 234.858 187.847 234.197 189.112 233.036C190.377 231.874 191.176 230.292 191.36 228.584L198.449 148.592C198.536 147.789 198.452 146.977 198.201 146.209C197.951 145.441 197.54 144.736 196.996 144.139C196.452 143.542 195.787 143.068 195.046 142.747C194.305 142.427 193.504 142.268 192.696 142.28Z"
        fill="#FAFAFA" />
    <path
        d="M65.6327 142.28H193.768C195.463 142.301 197.087 142.963 198.312 144.135C199.537 145.306 200.271 146.899 200.367 148.592L203.976 228.584C204.019 229.399 203.895 230.214 203.612 230.979C203.329 231.744 202.893 232.444 202.33 233.035C201.767 233.626 201.09 234.095 200.339 234.415C199.588 234.735 198.78 234.898 197.964 234.895H69.8176C68.1228 234.875 66.4988 234.212 65.2738 233.04C64.0489 231.869 63.3144 230.276 63.2188 228.584L59.6036 148.592C59.5613 147.775 59.6862 146.959 59.9706 146.193C60.2549 145.427 60.6928 144.727 61.2574 144.136C61.8219 143.545 62.5011 143.076 63.2535 142.757C64.0059 142.437 64.8155 142.275 65.6327 142.28Z"
        fill="#407BFF" />
    <path opacity="0.2"
        d="M65.6327 142.28H193.768C195.463 142.301 197.087 142.963 198.312 144.135C199.537 145.306 200.271 146.899 200.367 148.592L203.976 228.584C204.019 229.399 203.895 230.214 203.612 230.979C203.329 231.744 202.893 232.444 202.33 233.035C201.767 233.626 201.09 234.095 200.339 234.415C199.588 234.735 198.78 234.898 197.964 234.895H69.8176C68.1228 234.875 66.4988 234.212 65.2738 233.04C64.0489 231.869 63.3144 230.276 63.2188 228.584L59.6036 148.592C59.5613 147.775 59.6862 146.959 59.9706 146.193C60.2549 145.427 60.6928 144.727 61.2574 144.136C61.8219 143.545 62.5011 143.076 63.2535 142.757C64.0059 142.437 64.8155 142.275 65.6327 142.28Z"
        fill="#FAFAFA" />
    <path
        d="M191.416 213.756L188.432 147.695C188.397 147.047 188.116 146.437 187.646 145.988C187.177 145.54 186.555 145.287 185.906 145.281H73.7656C73.453 145.279 73.1433 145.341 72.8554 145.463C72.5676 145.585 72.3077 145.764 72.0917 145.99C71.8757 146.216 71.7082 146.484 71.5993 146.777C71.4905 147.07 71.4427 147.383 71.4589 147.695L74.4481 213.756C74.4838 214.404 74.7649 215.014 75.2342 215.463C75.7035 215.911 76.3258 216.164 76.9748 216.17H189.109C189.422 216.172 189.732 216.11 190.019 215.988C190.307 215.866 190.567 215.686 190.783 215.46C190.999 215.234 191.167 214.967 191.276 214.674C191.384 214.38 191.432 214.068 191.416 213.756Z"
        fill="#407BFF" />
    <path opacity="0.1"
        d="M191.416 213.756L188.432 147.695C188.397 147.047 188.116 146.437 187.646 145.988C187.177 145.54 186.555 145.287 185.906 145.281H73.7656C73.453 145.279 73.1433 145.341 72.8554 145.463C72.5676 145.585 72.3077 145.764 72.0917 145.99C71.8757 146.216 71.7082 146.484 71.5993 146.777C71.4905 147.07 71.4427 147.383 71.4589 147.695L74.4481 213.756C74.4838 214.404 74.7649 215.014 75.2342 215.463C75.7035 215.911 76.3258 216.164 76.9748 216.17H189.109C189.422 216.172 189.732 216.11 190.019 215.988C190.307 215.866 190.567 215.686 190.783 215.46C190.999 215.234 191.167 214.967 191.276 214.674C191.384 214.38 191.432 214.068 191.416 213.756Z"
        fill="#FAFAFA" />
    <path opacity="0.1"
        d="M194.58 219.148L191.45 149.776C191.414 149.096 191.12 148.455 190.627 147.984C190.134 147.513 189.48 147.249 188.799 147.244H71.0359C70.7077 147.241 70.3825 147.305 70.0802 147.433C69.7779 147.561 69.505 147.749 69.2783 147.987C69.0516 148.224 68.8759 148.505 68.762 148.813C68.6482 149.121 68.5986 149.448 68.6163 149.776L71.7522 219.148C71.7879 219.828 72.0813 220.469 72.5727 220.94C73.064 221.412 73.7164 221.678 74.3973 221.686H192.172C192.5 221.688 192.825 221.623 193.126 221.494C193.428 221.366 193.7 221.177 193.926 220.939C194.152 220.701 194.326 220.419 194.439 220.111C194.551 219.803 194.599 219.475 194.58 219.148Z"
        fill="black" />
    <path
        d="M197.49 224.743L194.225 152.382C194.181 151.674 193.872 151.009 193.36 150.519C192.848 150.029 192.17 149.749 191.461 149.736H68.6163C68.2736 149.734 67.9339 149.801 67.6182 149.935C67.3026 150.068 67.0176 150.265 66.7808 150.513C66.5441 150.76 66.3606 151.054 66.2417 151.376C66.1229 151.697 66.0711 152.039 66.0896 152.382L69.372 224.743C69.4159 225.45 69.7246 226.115 70.2367 226.606C70.7489 227.096 71.4268 227.375 72.1356 227.388H194.964C195.307 227.392 195.647 227.325 195.963 227.192C196.279 227.058 196.564 226.862 196.801 226.614C197.038 226.366 197.221 226.072 197.34 225.75C197.458 225.428 197.51 225.085 197.49 224.743Z"
        fill="#FAFAFA" />
    <path
        d="M80.731 154.074C80.962 154.074 81.1906 154.027 81.4028 153.936C81.615 153.845 81.8062 153.711 81.9648 153.543C82.1233 153.375 82.2457 153.176 82.3245 152.959C82.4033 152.742 82.4368 152.511 82.423 152.28C82.4014 151.828 82.2078 151.401 81.8818 151.086C81.5558 150.772 81.1219 150.594 80.6689 150.588C80.4379 150.588 80.2093 150.635 79.9971 150.726C79.7849 150.817 79.5936 150.951 79.4351 151.119C79.2766 151.287 79.1542 151.486 79.0754 151.703C78.9966 151.92 78.9631 152.151 78.9769 152.382C78.9985 152.834 79.192 153.262 79.5181 153.576C79.8441 153.891 80.278 154.069 80.731 154.074Z"
        fill="#407BFF" />
    <path
        d="M100.635 154.074C100.866 154.074 101.094 154.027 101.306 153.936C101.519 153.845 101.71 153.711 101.868 153.543C102.027 153.375 102.149 153.176 102.228 152.959C102.307 152.742 102.34 152.511 102.327 152.28C102.305 151.828 102.111 151.401 101.785 151.086C101.459 150.772 101.025 150.594 100.573 150.588C100.342 150.588 100.113 150.635 99.9007 150.726C99.6885 150.817 99.4972 150.951 99.3387 151.119C99.1802 151.287 99.0577 151.486 98.9789 151.703C98.9001 151.92 98.8666 152.151 98.8805 152.382C98.9007 152.835 99.0939 153.263 99.4202 153.578C99.7465 153.892 100.181 154.07 100.635 154.074Z"
        fill="#407BFF" />
    <path
        d="M120.538 154.074C120.769 154.074 120.998 154.027 121.21 153.936C121.422 153.845 121.613 153.711 121.772 153.543C121.93 153.375 122.053 153.176 122.132 152.959C122.21 152.742 122.244 152.511 122.23 152.28C122.207 151.828 122.013 151.402 121.687 151.088C121.362 150.773 120.929 150.595 120.476 150.588C120.245 150.588 120.016 150.635 119.804 150.726C119.592 150.817 119.401 150.951 119.242 151.119C119.084 151.287 118.961 151.486 118.883 151.703C118.804 151.92 118.77 152.151 118.784 152.382C118.804 152.835 118.997 153.263 119.324 153.578C119.65 153.892 120.085 154.07 120.538 154.074Z"
        fill="#407BFF" />
    <path
        d="M140.436 154.074C140.667 154.074 140.896 154.027 141.108 153.936C141.32 153.845 141.511 153.711 141.67 153.543C141.828 153.375 141.951 153.176 142.03 152.959C142.108 152.742 142.142 152.511 142.128 152.28C142.104 151.828 141.909 151.401 141.582 151.087C141.255 150.773 140.822 150.595 140.368 150.588C140.137 150.588 139.909 150.635 139.697 150.726C139.484 150.817 139.293 150.951 139.135 151.119C138.976 151.287 138.854 151.486 138.775 151.703C138.696 151.92 138.663 152.151 138.676 152.382C138.697 152.836 138.891 153.265 139.218 153.58C139.546 153.894 139.982 154.071 140.436 154.074Z"
        fill="#407BFF" />
    <path
        d="M160.34 154.074C160.571 154.074 160.799 154.027 161.011 153.936C161.224 153.845 161.415 153.711 161.573 153.543C161.732 153.375 161.854 153.176 161.933 152.959C162.012 152.742 162.045 152.511 162.032 152.28C162.01 151.828 161.816 151.401 161.49 151.086C161.164 150.772 160.731 150.594 160.278 150.588C160.047 150.588 159.818 150.635 159.606 150.726C159.394 150.817 159.202 150.951 159.044 151.119C158.885 151.287 158.763 151.486 158.684 151.703C158.605 151.92 158.572 152.151 158.586 152.382C158.607 152.834 158.801 153.262 159.127 153.576C159.453 153.891 159.887 154.069 160.34 154.074Z"
        fill="#407BFF" />
    <path
        d="M180.243 154.074C180.474 154.074 180.703 154.027 180.915 153.936C181.127 153.845 181.318 153.711 181.477 153.543C181.636 153.375 181.758 153.176 181.837 152.959C181.916 152.742 181.949 152.511 181.935 152.28C181.914 151.828 181.72 151.401 181.394 151.086C181.068 150.772 180.634 150.594 180.181 150.588C179.95 150.588 179.721 150.635 179.509 150.726C179.297 150.817 179.106 150.951 178.947 151.119C178.789 151.287 178.666 151.486 178.588 151.703C178.509 151.92 178.475 152.151 178.489 152.382C178.509 152.835 178.703 153.263 179.029 153.578C179.355 153.892 179.79 154.07 180.243 154.074Z"
        fill="#407BFF" />
    <g opacity="0.1">
        <path
            d="M80.731 154.074C80.962 154.074 81.1906 154.027 81.4028 153.936C81.615 153.845 81.8062 153.711 81.9648 153.543C82.1233 153.375 82.2457 153.176 82.3245 152.959C82.4033 152.742 82.4368 152.511 82.423 152.28C82.4014 151.828 82.2078 151.401 81.8818 151.086C81.5558 150.772 81.1219 150.594 80.6689 150.588C80.4379 150.588 80.2093 150.635 79.9971 150.726C79.7849 150.817 79.5936 150.951 79.4351 151.119C79.2766 151.287 79.1542 151.486 79.0754 151.703C78.9966 151.92 78.9631 152.151 78.9769 152.382C78.9985 152.834 79.192 153.262 79.5181 153.576C79.8441 153.891 80.278 154.069 80.731 154.074Z"
            fill="#FAFAFA" />
        <path
            d="M100.635 154.074C100.866 154.074 101.094 154.027 101.306 153.936C101.519 153.845 101.71 153.711 101.868 153.543C102.027 153.375 102.149 153.176 102.228 152.959C102.307 152.742 102.34 152.511 102.327 152.28C102.305 151.828 102.111 151.401 101.785 151.086C101.459 150.772 101.025 150.594 100.573 150.588C100.342 150.588 100.113 150.635 99.9007 150.726C99.6885 150.817 99.4972 150.951 99.3387 151.119C99.1802 151.287 99.0577 151.486 98.9789 151.703C98.9001 151.92 98.8666 152.151 98.8805 152.382C98.9007 152.835 99.0939 153.263 99.4202 153.578C99.7465 153.892 100.181 154.07 100.635 154.074Z"
            fill="#FAFAFA" />
        <path
            d="M120.538 154.074C120.769 154.074 120.998 154.027 121.21 153.936C121.422 153.845 121.613 153.711 121.772 153.543C121.93 153.375 122.053 153.176 122.132 152.959C122.21 152.742 122.244 152.511 122.23 152.28C122.207 151.828 122.013 151.402 121.687 151.088C121.362 150.773 120.929 150.595 120.476 150.588C120.245 150.588 120.016 150.635 119.804 150.726C119.592 150.817 119.401 150.951 119.242 151.119C119.084 151.287 118.961 151.486 118.883 151.703C118.804 151.92 118.77 152.151 118.784 152.382C118.804 152.835 118.997 153.263 119.324 153.578C119.65 153.892 120.085 154.07 120.538 154.074Z"
            fill="#FAFAFA" />
        <path
            d="M140.436 154.074C140.667 154.074 140.896 154.027 141.108 153.936C141.32 153.845 141.511 153.711 141.67 153.543C141.828 153.375 141.951 153.176 142.03 152.959C142.108 152.742 142.142 152.511 142.128 152.28C142.104 151.828 141.909 151.401 141.582 151.087C141.255 150.773 140.822 150.595 140.368 150.588C140.137 150.588 139.909 150.635 139.697 150.726C139.484 150.817 139.293 150.951 139.135 151.119C138.976 151.287 138.854 151.486 138.775 151.703C138.696 151.92 138.663 152.151 138.676 152.382C138.697 152.836 138.891 153.265 139.218 153.58C139.546 153.894 139.982 154.071 140.436 154.074Z"
            fill="#FAFAFA" />
        <path
            d="M160.34 154.074C160.571 154.074 160.799 154.027 161.011 153.936C161.224 153.845 161.415 153.711 161.573 153.543C161.732 153.375 161.854 153.176 161.933 152.959C162.012 152.742 162.045 152.511 162.032 152.28C162.01 151.828 161.816 151.401 161.49 151.086C161.164 150.772 160.731 150.594 160.278 150.588C160.047 150.588 159.818 150.635 159.606 150.726C159.394 150.817 159.202 150.951 159.044 151.119C158.885 151.287 158.763 151.486 158.684 151.703C158.605 151.92 158.572 152.151 158.586 152.382C158.607 152.834 158.801 153.262 159.127 153.576C159.453 153.891 159.887 154.069 160.34 154.074Z"
            fill="#FAFAFA" />
        <path
            d="M180.243 154.074C180.474 154.074 180.703 154.027 180.915 153.936C181.127 153.845 181.318 153.711 181.477 153.543C181.636 153.375 181.758 153.176 181.837 152.959C181.916 152.742 181.949 152.511 181.935 152.28C181.914 151.828 181.72 151.401 181.394 151.086C181.068 150.772 180.634 150.594 180.181 150.588C179.95 150.588 179.721 150.635 179.509 150.726C179.297 150.817 179.106 150.951 178.947 151.119C178.789 151.287 178.666 151.486 178.588 151.703C178.509 151.92 178.475 152.151 178.489 152.382C178.509 152.835 178.703 153.263 179.029 153.578C179.355 153.892 179.79 154.07 180.243 154.074Z"
            fill="#FAFAFA" />
    </g>
    <path
        d="M175.269 160.379H185.28C185.425 160.38 185.569 160.351 185.702 160.294C185.835 160.237 185.955 160.153 186.055 160.047C186.154 159.941 186.23 159.815 186.278 159.678C186.326 159.541 186.345 159.396 186.334 159.251C186.323 158.955 186.201 158.675 185.992 158.466C185.782 158.257 185.502 158.134 185.206 158.123H175.195C175.05 158.122 174.906 158.151 174.773 158.208C174.64 158.265 174.52 158.35 174.421 158.456C174.321 158.562 174.245 158.687 174.197 158.824C174.149 158.961 174.13 159.106 174.141 159.251C174.152 159.547 174.274 159.827 174.484 160.036C174.693 160.245 174.973 160.368 175.269 160.379Z"
        fill="#407BFF" />
    <path
        d="M155.365 160.379H165.376C165.521 160.38 165.665 160.351 165.799 160.294C165.932 160.237 166.052 160.153 166.151 160.047C166.25 159.941 166.326 159.815 166.374 159.678C166.423 159.541 166.442 159.396 166.431 159.251C166.419 158.951 166.293 158.666 166.078 158.456C165.863 158.247 165.575 158.127 165.275 158.123H155.269C155.124 158.122 154.98 158.151 154.846 158.208C154.713 158.265 154.592 158.349 154.493 158.455C154.393 158.561 154.316 158.687 154.268 158.824C154.219 158.961 154.199 159.106 154.209 159.251C154.221 159.551 154.347 159.836 154.562 160.046C154.777 160.256 155.065 160.375 155.365 160.379Z"
        fill="#407BFF" />
    <path
        d="M135.462 160.379H145.473C145.618 160.38 145.762 160.351 145.896 160.294C146.029 160.237 146.15 160.153 146.249 160.047C146.349 159.941 146.425 159.816 146.474 159.679C146.523 159.542 146.543 159.396 146.533 159.251C146.521 158.951 146.395 158.666 146.18 158.456C145.965 158.247 145.677 158.127 145.377 158.123H135.36C135.215 158.122 135.071 158.151 134.938 158.208C134.804 158.265 134.684 158.35 134.585 158.456C134.486 158.562 134.41 158.687 134.362 158.824C134.314 158.961 134.294 159.106 134.305 159.251C134.315 159.552 134.441 159.837 134.657 160.047C134.872 160.257 135.161 160.376 135.462 160.379Z"
        fill="#407BFF" />
    <path
        d="M115.564 160.379H125.575C125.72 160.38 125.864 160.351 125.997 160.294C126.13 160.237 126.25 160.153 126.35 160.047C126.449 159.941 126.525 159.815 126.573 159.678C126.621 159.541 126.64 159.396 126.629 159.251C126.618 158.955 126.496 158.675 126.287 158.466C126.077 158.257 125.797 158.134 125.501 158.123H115.49C115.345 158.122 115.201 158.151 115.068 158.208C114.935 158.265 114.815 158.35 114.715 158.456C114.616 158.562 114.54 158.687 114.492 158.824C114.444 158.961 114.425 159.106 114.436 159.251C114.447 159.547 114.569 159.827 114.778 160.036C114.988 160.245 115.268 160.368 115.564 160.379Z"
        fill="#407BFF" />
    <path
        d="M95.6601 160.379H105.671C105.816 160.38 105.96 160.351 106.093 160.294C106.227 160.237 106.347 160.153 106.446 160.047C106.545 159.941 106.621 159.815 106.669 159.678C106.717 159.541 106.737 159.396 106.726 159.251C106.714 158.951 106.588 158.666 106.373 158.456C106.158 158.247 105.87 158.127 105.57 158.123H95.5586C95.4134 158.122 95.2696 158.151 95.1362 158.208C95.0029 158.265 94.8828 158.35 94.7837 158.456C94.6846 158.562 94.6085 158.687 94.5603 158.824C94.5122 158.961 94.493 159.106 94.5039 159.251C94.5154 159.551 94.6418 159.836 94.8569 160.046C95.0721 160.256 95.3596 160.375 95.6601 160.379Z"
        fill="#407BFF" />
    <path
        d="M75.7565 160.379H85.7675C85.9127 160.38 86.0565 160.351 86.1899 160.294C86.3232 160.237 86.4433 160.153 86.5424 160.047C86.6415 159.941 86.7176 159.815 86.7658 159.678C86.8139 159.541 86.8331 159.396 86.8222 159.251C86.8107 158.951 86.6843 158.666 86.4692 158.456C86.254 158.247 85.9666 158.127 85.666 158.123H75.6607C75.5153 158.122 75.3713 158.151 75.2376 158.208C75.1039 158.265 74.9836 158.349 74.884 158.455C74.7844 158.561 74.7078 158.687 74.659 158.824C74.6102 158.961 74.5902 159.106 74.6003 159.251C74.6119 159.551 74.7382 159.836 74.9534 160.046C75.1685 160.256 75.456 160.375 75.7565 160.379Z"
        fill="#407BFF" />
    <g opacity="0.3">
        <path
            d="M175.269 160.379H185.28C185.425 160.38 185.569 160.351 185.702 160.294C185.835 160.237 185.955 160.153 186.055 160.047C186.154 159.941 186.23 159.815 186.278 159.678C186.326 159.541 186.345 159.396 186.334 159.251C186.323 158.955 186.201 158.675 185.992 158.466C185.782 158.257 185.502 158.134 185.206 158.123H175.195C175.05 158.122 174.906 158.151 174.773 158.208C174.64 158.265 174.52 158.35 174.421 158.456C174.321 158.562 174.245 158.687 174.197 158.824C174.149 158.961 174.13 159.106 174.141 159.251C174.152 159.547 174.274 159.827 174.484 160.036C174.693 160.245 174.973 160.368 175.269 160.379Z"
            fill="black" />
        <path
            d="M155.365 160.379H165.376C165.521 160.38 165.665 160.351 165.799 160.294C165.932 160.237 166.052 160.153 166.151 160.047C166.25 159.941 166.326 159.815 166.374 159.678C166.423 159.541 166.442 159.396 166.431 159.251C166.419 158.951 166.293 158.666 166.078 158.456C165.863 158.247 165.575 158.127 165.275 158.123H155.269C155.124 158.122 154.98 158.151 154.846 158.208C154.713 158.265 154.592 158.349 154.493 158.455C154.393 158.561 154.316 158.687 154.268 158.824C154.219 158.961 154.199 159.106 154.209 159.251C154.221 159.551 154.347 159.836 154.562 160.046C154.777 160.256 155.065 160.375 155.365 160.379Z"
            fill="black" />
        <path
            d="M135.462 160.379H145.473C145.618 160.38 145.762 160.351 145.896 160.294C146.029 160.237 146.15 160.153 146.249 160.047C146.349 159.941 146.425 159.816 146.474 159.679C146.523 159.542 146.543 159.396 146.533 159.251C146.521 158.951 146.395 158.666 146.18 158.456C145.965 158.247 145.677 158.127 145.377 158.123H135.36C135.215 158.122 135.071 158.151 134.938 158.208C134.804 158.265 134.684 158.35 134.585 158.456C134.486 158.562 134.41 158.687 134.362 158.824C134.314 158.961 134.295 159.106 134.305 159.251C134.316 159.552 134.442 159.837 134.657 160.047C134.872 160.257 135.161 160.376 135.462 160.379Z"
            fill="black" />
        <path
            d="M115.564 160.379H125.575C125.72 160.38 125.864 160.351 125.997 160.294C126.13 160.237 126.25 160.153 126.35 160.047C126.449 159.941 126.525 159.815 126.573 159.678C126.621 159.541 126.64 159.396 126.629 159.251C126.618 158.955 126.496 158.675 126.287 158.466C126.077 158.257 125.797 158.134 125.501 158.123H115.49C115.345 158.122 115.201 158.151 115.068 158.208C114.935 158.265 114.815 158.35 114.715 158.456C114.616 158.562 114.54 158.687 114.492 158.824C114.444 158.961 114.425 159.106 114.436 159.251C114.447 159.547 114.569 159.827 114.778 160.036C114.988 160.245 115.268 160.368 115.564 160.379Z"
            fill="black" />
        <path
            d="M95.6601 160.379H105.671C105.816 160.38 105.96 160.351 106.093 160.294C106.227 160.237 106.347 160.153 106.446 160.047C106.545 159.941 106.621 159.815 106.669 159.678C106.717 159.541 106.737 159.396 106.726 159.251C106.714 158.951 106.588 158.666 106.373 158.456C106.158 158.247 105.87 158.127 105.57 158.123H95.5586C95.4134 158.122 95.2696 158.151 95.1362 158.208C95.0029 158.265 94.8828 158.35 94.7837 158.456C94.6846 158.562 94.6085 158.687 94.5603 158.824C94.5122 158.961 94.493 159.106 94.5039 159.251C94.5154 159.551 94.6418 159.836 94.8569 160.046C95.0721 160.256 95.3596 160.375 95.6601 160.379Z"
            fill="black" />
        <path
            d="M75.7565 160.379H85.7675C85.9127 160.38 86.0565 160.351 86.1899 160.294C86.3232 160.237 86.4433 160.153 86.5424 160.047C86.6415 159.941 86.7176 159.815 86.7658 159.678C86.8139 159.541 86.8331 159.396 86.8222 159.251C86.8107 158.951 86.6843 158.666 86.4692 158.456C86.254 158.247 85.9666 158.127 85.666 158.123H75.6607C75.5153 158.122 75.3713 158.151 75.2376 158.208C75.1039 158.265 74.9836 158.349 74.884 158.455C74.7844 158.561 74.7078 158.687 74.659 158.824C74.6102 158.961 74.5902 159.106 74.6003 159.251C74.6119 159.551 74.7382 159.836 74.9534 160.046C75.1685 160.256 75.456 160.375 75.7565 160.379Z"
            fill="black" />
    </g>
    <path
        d="M174.716 181.682H187.756C188.042 181.683 188.325 181.626 188.588 181.514C188.851 181.402 189.089 181.237 189.286 181.03C189.483 180.823 189.637 180.578 189.736 180.31C189.836 180.042 189.88 179.756 189.865 179.471L189.301 166.431C189.267 165.838 189.009 165.281 188.58 164.87C188.151 164.46 187.582 164.228 186.989 164.22H173.949C173.663 164.219 173.38 164.276 173.117 164.388C172.853 164.5 172.616 164.665 172.418 164.872C172.221 165.079 172.068 165.324 171.968 165.592C171.869 165.86 171.825 166.145 171.84 166.431L172.404 179.471C172.439 180.063 172.697 180.62 173.126 181.03C173.555 181.44 174.123 181.673 174.716 181.682Z"
        fill="#407BFF" />
    <path
        d="M154.812 181.682H167.852C168.138 181.684 168.422 181.627 168.685 181.515C168.949 181.404 169.187 181.239 169.384 181.032C169.582 180.825 169.735 180.58 169.834 180.311C169.934 180.043 169.977 179.757 169.961 179.471L169.397 166.431C169.363 165.838 169.106 165.281 168.676 164.87C168.247 164.46 167.679 164.228 167.085 164.22H154.028C153.742 164.219 153.459 164.276 153.195 164.388C152.932 164.5 152.694 164.665 152.496 164.871C152.298 165.078 152.145 165.323 152.044 165.591C151.944 165.859 151.9 166.145 151.913 166.431L152.506 179.471C152.538 180.063 152.795 180.621 153.223 181.031C153.651 181.441 154.219 181.674 154.812 181.682Z"
        fill="#407BFF" />
    <path
        d="M134.914 181.682H147.948C148.235 181.683 148.518 181.626 148.782 181.514C149.045 181.402 149.283 181.237 149.481 181.03C149.679 180.824 149.832 180.579 149.933 180.311C150.033 180.042 150.077 179.757 150.063 179.471L149.499 166.431C149.465 165.838 149.208 165.281 148.779 164.87C148.349 164.46 147.781 164.228 147.187 164.22H134.153C133.867 164.218 133.583 164.275 133.32 164.387C133.056 164.498 132.818 164.663 132.621 164.87C132.423 165.077 132.27 165.322 132.171 165.591C132.072 165.859 132.028 166.145 132.044 166.431L132.608 179.471C132.642 180.063 132.899 180.619 133.327 181.03C133.754 181.44 134.322 181.673 134.914 181.682Z"
        fill="#407BFF" />
    <path
        d="M115.011 181.682H128.028C128.314 181.684 128.598 181.627 128.862 181.515C129.126 181.404 129.364 181.239 129.562 181.032C129.76 180.825 129.914 180.58 130.014 180.311C130.114 180.043 130.158 179.757 130.143 179.471L129.579 166.431C129.546 165.839 129.29 165.281 128.862 164.871C128.433 164.46 127.865 164.228 127.272 164.22H114.233C113.947 164.219 113.663 164.276 113.4 164.388C113.137 164.5 112.9 164.665 112.702 164.872C112.505 165.079 112.352 165.324 112.252 165.592C112.152 165.86 112.109 166.145 112.123 166.431L112.687 179.471C112.722 180.065 112.981 180.625 113.412 181.035C113.844 181.446 114.415 181.677 115.011 181.682Z"
        fill="#407BFF" />
    <path
        d="M95.1074 181.682H108.147C108.433 181.683 108.716 181.626 108.979 181.514C109.243 181.402 109.48 181.237 109.678 181.03C109.875 180.823 110.028 180.578 110.128 180.31C110.227 180.042 110.271 179.756 110.256 179.471L109.692 166.431C109.658 165.838 109.401 165.281 108.971 164.87C108.542 164.46 107.974 164.228 107.38 164.22H94.346C94.0595 164.218 93.7757 164.275 93.5119 164.387C93.2481 164.498 93.0098 164.663 92.8118 164.87C92.6138 165.077 92.4601 165.322 92.3602 165.59C92.2604 165.859 92.2164 166.145 92.231 166.431L92.795 179.471C92.8305 180.063 93.0885 180.62 93.5174 181.03C93.9462 181.44 94.5142 181.673 95.1074 181.682Z"
        fill="#407BFF" />
    <path
        d="M75.2094 181.682H88.2434C88.5297 181.684 88.8133 181.627 89.0768 181.515C89.3403 181.404 89.5782 181.239 89.7758 181.032C89.9733 180.825 90.1265 180.58 90.2257 180.311C90.3249 180.043 90.3682 179.757 90.3528 179.471L89.7888 166.431C89.7546 165.838 89.497 165.281 89.0678 164.87C88.6387 164.46 88.07 164.228 87.4764 164.22H74.4423C74.1561 164.219 73.8727 164.276 73.6092 164.388C73.3458 164.5 73.1079 164.665 72.91 164.871C72.7122 165.078 72.5585 165.323 72.4583 165.591C72.3581 165.859 72.3136 166.145 72.3273 166.431L72.9196 179.471C72.9522 180.06 73.2062 180.615 73.6308 181.025C74.0554 181.435 74.6193 181.67 75.2094 181.682Z"
        fill="#407BFF" />
    <g opacity="0.8">
        <path
            d="M174.716 181.682H187.756C188.042 181.683 188.325 181.626 188.588 181.514C188.851 181.402 189.089 181.237 189.286 181.03C189.483 180.823 189.637 180.578 189.736 180.31C189.836 180.042 189.88 179.756 189.865 179.471L189.301 166.431C189.267 165.838 189.009 165.281 188.58 164.87C188.151 164.46 187.582 164.228 186.989 164.22H173.949C173.663 164.219 173.38 164.276 173.117 164.388C172.853 164.5 172.616 164.665 172.418 164.872C172.221 165.079 172.068 165.324 171.968 165.592C171.869 165.86 171.825 166.145 171.84 166.431L172.404 179.471C172.439 180.063 172.697 180.62 173.126 181.03C173.555 181.44 174.123 181.673 174.716 181.682Z"
            fill="#FAFAFA" />
        <path
            d="M154.812 181.682H167.852C168.138 181.684 168.422 181.627 168.685 181.515C168.949 181.404 169.187 181.239 169.384 181.032C169.582 180.825 169.735 180.58 169.834 180.311C169.934 180.043 169.977 179.757 169.961 179.471L169.397 166.431C169.363 165.838 169.106 165.281 168.676 164.87C168.247 164.46 167.679 164.228 167.085 164.22H154.028C153.742 164.219 153.459 164.276 153.195 164.388C152.932 164.5 152.694 164.665 152.496 164.871C152.298 165.078 152.145 165.323 152.044 165.591C151.944 165.859 151.9 166.145 151.913 166.431L152.506 179.471C152.538 180.063 152.795 180.621 153.223 181.031C153.651 181.441 154.219 181.674 154.812 181.682Z"
            fill="#FAFAFA" />
        <path
            d="M134.914 181.682H147.948C148.235 181.683 148.518 181.626 148.782 181.514C149.045 181.402 149.283 181.237 149.481 181.03C149.679 180.824 149.832 180.579 149.933 180.311C150.033 180.042 150.077 179.757 150.063 179.471L149.499 166.431C149.465 165.838 149.208 165.281 148.779 164.87C148.349 164.46 147.781 164.228 147.187 164.22H134.153C133.867 164.218 133.583 164.275 133.32 164.387C133.056 164.498 132.818 164.663 132.621 164.87C132.423 165.077 132.27 165.322 132.171 165.591C132.072 165.859 132.028 166.145 132.044 166.431L132.608 179.471C132.642 180.063 132.899 180.619 133.327 181.03C133.754 181.44 134.322 181.673 134.914 181.682Z"
            fill="#FAFAFA" />
        <path
            d="M115.011 181.682H128.028C128.314 181.684 128.598 181.627 128.862 181.515C129.126 181.404 129.364 181.239 129.562 181.032C129.76 180.825 129.914 180.58 130.014 180.311C130.114 180.043 130.158 179.757 130.143 179.471L129.579 166.431C129.546 165.839 129.29 165.281 128.862 164.871C128.433 164.46 127.865 164.228 127.272 164.22H114.233C113.947 164.219 113.663 164.276 113.4 164.388C113.137 164.5 112.9 164.665 112.702 164.872C112.505 165.079 112.352 165.324 112.252 165.592C112.152 165.86 112.109 166.145 112.123 166.431L112.687 179.471C112.722 180.065 112.981 180.625 113.412 181.035C113.844 181.446 114.415 181.677 115.011 181.682Z"
            fill="#FAFAFA" />
        <path
            d="M95.1073 181.682H108.147C108.433 181.683 108.716 181.626 108.979 181.514C109.242 181.402 109.48 181.237 109.677 181.03C109.875 180.823 110.028 180.578 110.128 180.31C110.227 180.042 110.271 179.756 110.256 179.471L109.692 166.431C109.658 165.838 109.4 165.281 108.971 164.87C108.542 164.46 107.974 164.228 107.38 164.22H94.3459C94.0594 164.218 93.7756 164.275 93.5118 164.387C93.248 164.498 93.0097 164.663 92.8117 164.87C92.6137 165.077 92.46 165.322 92.3601 165.59C92.2603 165.859 92.2163 166.145 92.2309 166.431L92.7949 179.471C92.8304 180.063 93.0884 180.62 93.5172 181.03C93.9461 181.44 94.514 181.673 95.1073 181.682Z"
            fill="#FAFAFA" />
        <path
            d="M75.2094 181.682H88.2434C88.5297 181.684 88.8133 181.627 89.0768 181.515C89.3403 181.404 89.5782 181.239 89.7758 181.032C89.9733 180.825 90.1265 180.58 90.2257 180.311C90.3249 180.043 90.3682 179.757 90.3528 179.471L89.7888 166.431C89.7546 165.838 89.497 165.281 89.0678 164.87C88.6387 164.46 88.07 164.228 87.4764 164.22H74.4423C74.1561 164.219 73.8727 164.276 73.6092 164.388C73.3458 164.5 73.1079 164.665 72.91 164.871C72.7122 165.078 72.5585 165.323 72.4583 165.591C72.3581 165.859 72.3136 166.145 72.3273 166.431L72.9196 179.471C72.9522 180.06 73.2062 180.615 73.6308 181.025C74.0554 181.435 74.6193 181.67 75.2094 181.682Z"
            fill="#FAFAFA" />
    </g>
    <path
        d="M175.63 201.912H188.669C188.955 201.913 189.238 201.856 189.502 201.744C189.765 201.632 190.002 201.468 190.2 201.261C190.397 201.054 190.55 200.809 190.65 200.541C190.749 200.272 190.793 199.987 190.779 199.701L190.215 186.662C190.179 186.069 189.921 185.512 189.492 185.102C189.063 184.692 188.495 184.46 187.902 184.451H174.84C174.554 184.45 174.271 184.507 174.008 184.619C173.744 184.731 173.507 184.895 173.31 185.102C173.112 185.309 172.959 185.554 172.859 185.822C172.76 186.09 172.716 186.376 172.731 186.662L173.295 199.701C173.33 200.297 173.592 200.858 174.025 201.268C174.459 201.679 175.032 201.909 175.63 201.912Z"
        fill="#407BFF" />
    <path
        d="M155.726 201.912H168.766C169.052 201.913 169.335 201.856 169.598 201.744C169.861 201.632 170.099 201.468 170.296 201.261C170.494 201.054 170.647 200.809 170.746 200.541C170.846 200.273 170.89 199.987 170.875 199.701L170.311 186.662C170.277 186.069 170.019 185.511 169.59 185.101C169.161 184.691 168.592 184.458 167.999 184.451H154.965C154.676 184.449 154.39 184.506 154.124 184.619C153.858 184.732 153.619 184.898 153.42 185.108C153.221 185.317 153.068 185.565 152.968 185.836C152.869 186.107 152.827 186.396 152.844 186.684L153.408 199.701C153.441 200.295 153.699 200.855 154.13 201.265C154.56 201.676 155.131 201.907 155.726 201.912Z"
        fill="#407BFF" />
    <path
        d="M135.828 201.912H148.862C149.148 201.914 149.432 201.857 149.696 201.746C149.959 201.634 150.197 201.47 150.395 201.262C150.592 201.055 150.745 200.81 150.844 200.542C150.944 200.273 150.987 199.987 150.972 199.701L150.408 186.662C150.373 186.069 150.116 185.511 149.687 185.101C149.258 184.691 148.689 184.458 148.095 184.451H135.061C134.775 184.449 134.491 184.505 134.228 184.617C133.964 184.729 133.726 184.893 133.529 185.1C133.331 185.308 133.178 185.553 133.079 185.821C132.98 186.09 132.936 186.376 132.952 186.662L133.516 199.701C133.55 200.294 133.808 200.852 134.237 201.262C134.666 201.672 135.235 201.905 135.828 201.912Z"
        fill="#407BFF" />
    <path
        d="M115.925 201.912H128.959C129.245 201.914 129.528 201.856 129.792 201.744C130.055 201.632 130.293 201.468 130.491 201.261C130.689 201.054 130.842 200.809 130.943 200.541C131.043 200.273 131.087 199.987 131.074 199.702L130.51 186.662C130.477 186.07 130.22 185.512 129.792 185.102C129.364 184.691 128.796 184.459 128.203 184.451H115.163C114.873 184.446 114.585 184.501 114.316 184.612C114.048 184.724 113.806 184.89 113.605 185.1C113.405 185.31 113.25 185.559 113.15 185.831C113.05 186.104 113.008 186.395 113.026 186.684L113.59 199.724C113.63 200.317 113.893 200.872 114.326 201.278C114.759 201.684 115.331 201.911 115.925 201.912Z"
        fill="#407BFF" />
    <path
        d="M96.0211 201.912H109.061C109.347 201.913 109.63 201.856 109.893 201.744C110.156 201.632 110.394 201.468 110.591 201.261C110.789 201.054 110.942 200.809 111.041 200.541C111.141 200.273 111.185 199.987 111.17 199.701L110.606 186.662C110.576 186.064 110.32 185.501 109.889 185.086C109.458 184.671 108.886 184.436 108.288 184.428H95.2484C94.9624 184.427 94.6792 184.484 94.4161 184.596C94.1529 184.708 93.9154 184.873 93.7179 185.08C93.5205 185.287 93.3674 185.532 93.2678 185.8C93.1683 186.068 93.1245 186.354 93.1391 186.639L93.7031 199.679C93.7331 200.276 93.9895 200.839 94.4201 201.254C94.8507 201.669 95.4232 201.904 96.0211 201.912Z"
        fill="#407BFF" />
    <path
        d="M76.14 201.912H89.1571C89.4433 201.914 89.7269 201.857 89.9905 201.746C90.254 201.634 90.4919 201.469 90.6895 201.262C90.8871 201.055 91.0402 200.81 91.1394 200.541C91.2386 200.273 91.2819 199.987 91.2665 199.701L90.7025 186.662C90.6683 186.069 90.4107 185.511 89.9815 185.101C89.5524 184.691 88.9837 184.458 88.3901 184.451H75.356C75.0698 184.45 74.7864 184.507 74.5229 184.619C74.2595 184.731 74.0216 184.895 73.8237 185.102C73.6259 185.309 73.4722 185.554 73.372 185.822C73.2718 186.09 73.2273 186.376 73.241 186.662L73.8333 199.701C73.8661 200.293 74.1225 200.851 74.5507 201.262C74.9789 201.672 75.5469 201.904 76.14 201.912Z"
        fill="#407BFF" />
    <g opacity="0.8">
        <path
            d="M175.63 201.913H188.669C188.955 201.914 189.238 201.857 189.502 201.745C189.765 201.633 190.002 201.468 190.2 201.261C190.397 201.054 190.55 200.809 190.65 200.541C190.749 200.273 190.793 199.987 190.779 199.702L190.215 186.662C190.179 186.07 189.921 185.513 189.492 185.103C189.063 184.693 188.495 184.46 187.902 184.451H174.84C174.554 184.45 174.271 184.507 174.008 184.619C173.744 184.731 173.507 184.896 173.31 185.103C173.112 185.31 172.959 185.555 172.859 185.823C172.76 186.091 172.716 186.376 172.731 186.662L173.295 199.702C173.33 200.298 173.592 200.858 174.025 201.269C174.459 201.679 175.032 201.909 175.63 201.913Z"
            fill="#FAFAFA" />
        <path
            d="M155.726 201.912H168.766C169.052 201.913 169.335 201.856 169.598 201.744C169.861 201.632 170.099 201.468 170.296 201.261C170.494 201.054 170.647 200.809 170.746 200.541C170.846 200.273 170.89 199.987 170.875 199.701L170.311 186.662C170.277 186.069 170.019 185.511 169.59 185.101C169.161 184.691 168.592 184.458 167.999 184.451H154.965C154.676 184.449 154.39 184.506 154.124 184.619C153.858 184.732 153.619 184.898 153.42 185.108C153.221 185.317 153.068 185.565 152.968 185.836C152.869 186.107 152.827 186.396 152.844 186.684L153.408 199.701C153.441 200.295 153.699 200.855 154.13 201.265C154.56 201.676 155.131 201.907 155.726 201.912Z"
            fill="#FAFAFA" />
        <path
            d="M135.828 201.912H148.862C149.148 201.914 149.432 201.857 149.696 201.746C149.959 201.634 150.197 201.47 150.395 201.262C150.592 201.055 150.745 200.81 150.844 200.542C150.944 200.273 150.987 199.987 150.972 199.701L150.408 186.662C150.373 186.069 150.116 185.511 149.687 185.101C149.258 184.691 148.689 184.458 148.095 184.451H135.061C134.775 184.449 134.491 184.505 134.228 184.617C133.964 184.729 133.726 184.893 133.529 185.1C133.331 185.308 133.178 185.553 133.079 185.821C132.98 186.09 132.936 186.376 132.952 186.662L133.516 199.701C133.55 200.294 133.808 200.852 134.237 201.262C134.666 201.672 135.235 201.905 135.828 201.912Z"
            fill="#FAFAFA" />
        <path
            d="M115.925 201.912H128.959C129.245 201.914 129.528 201.856 129.792 201.744C130.055 201.632 130.293 201.468 130.491 201.261C130.689 201.054 130.842 200.809 130.943 200.541C131.043 200.273 131.087 199.987 131.074 199.702L130.51 186.662C130.477 186.07 130.22 185.512 129.792 185.102C129.364 184.691 128.796 184.459 128.203 184.451H115.163C114.873 184.446 114.585 184.501 114.316 184.612C114.048 184.724 113.806 184.89 113.605 185.1C113.405 185.31 113.25 185.559 113.15 185.831C113.05 186.104 113.008 186.395 113.026 186.684L113.59 199.724C113.63 200.317 113.893 200.872 114.326 201.278C114.759 201.684 115.331 201.911 115.925 201.912Z"
            fill="#FAFAFA" />
        <path
            d="M96.021 201.912H109.061C109.347 201.913 109.63 201.856 109.893 201.744C110.156 201.632 110.394 201.468 110.591 201.261C110.789 201.054 110.942 200.809 111.041 200.541C111.141 200.273 111.185 199.987 111.17 199.701L110.606 186.662C110.576 186.064 110.32 185.501 109.889 185.086C109.458 184.671 108.886 184.436 108.288 184.428H95.2483C94.9623 184.427 94.6791 184.484 94.4159 184.596C94.1528 184.708 93.9152 184.873 93.7178 185.08C93.5204 185.287 93.3672 185.532 93.2677 185.8C93.1682 186.068 93.1244 186.354 93.1389 186.639L93.7029 199.679C93.733 200.276 93.9894 200.839 94.42 201.254C94.8506 201.669 95.4231 201.904 96.021 201.912Z"
            fill="#FAFAFA" />
        <path
            d="M76.14 201.912H89.1571C89.4433 201.914 89.7269 201.857 89.9905 201.746C90.254 201.634 90.4919 201.469 90.6895 201.262C90.8871 201.055 91.0402 200.81 91.1394 200.541C91.2386 200.273 91.2819 199.987 91.2665 199.701L90.7025 186.662C90.6683 186.069 90.4107 185.511 89.9815 185.101C89.5524 184.691 88.9837 184.458 88.3901 184.451H75.356C75.0698 184.45 74.7864 184.507 74.5229 184.619C74.2595 184.731 74.0216 184.895 73.8237 185.102C73.6259 185.309 73.4722 185.554 73.372 185.822C73.2718 186.09 73.2273 186.376 73.241 186.662L73.8333 199.701C73.8661 200.293 74.1225 200.851 74.5507 201.262C74.9789 201.672 75.5469 201.904 76.14 201.912Z"
            fill="#FAFAFA" />
    </g>
    <path
        d="M176.532 222.137H189.583C189.869 222.139 190.153 222.083 190.416 221.971C190.68 221.859 190.918 221.695 191.115 221.488C191.313 221.281 191.466 221.035 191.565 220.767C191.665 220.498 191.708 220.212 191.692 219.927L191.128 206.893C191.094 206.3 190.837 205.742 190.407 205.332C189.978 204.922 189.41 204.689 188.816 204.682H175.776C175.49 204.68 175.206 204.736 174.943 204.848C174.679 204.96 174.442 205.124 174.244 205.331C174.046 205.539 173.893 205.784 173.794 206.052C173.695 206.321 173.652 206.607 173.667 206.893L174.231 219.927C174.264 220.518 174.519 221.075 174.946 221.485C175.373 221.895 175.94 222.128 176.532 222.137Z"
        fill="#407BFF" />
    <path
        d="M156.64 222.137H169.679C169.966 222.139 170.249 222.082 170.513 221.971C170.776 221.859 171.014 221.694 171.212 221.487C171.409 221.28 171.563 221.035 171.662 220.766C171.761 220.498 171.804 220.212 171.789 219.926L171.225 206.892C171.192 206.299 170.935 205.74 170.505 205.33C170.076 204.919 169.506 204.687 168.912 204.681H155.878C155.592 204.679 155.307 204.735 155.043 204.846C154.779 204.957 154.541 205.122 154.342 205.329C154.144 205.536 153.991 205.782 153.891 206.051C153.791 206.319 153.748 206.606 153.763 206.892L154.327 219.926C154.359 220.52 154.616 221.079 155.045 221.49C155.475 221.901 156.045 222.132 156.64 222.137Z"
        fill="#407BFF" />
    <path
        d="M136.742 222.137H149.776C150.062 222.139 150.346 222.083 150.609 221.971C150.873 221.859 151.111 221.695 151.308 221.488C151.506 221.281 151.659 221.035 151.758 220.767C151.857 220.498 151.901 220.212 151.885 219.927L151.321 206.893C151.288 206.299 151.031 205.741 150.602 205.33C150.172 204.92 149.603 204.688 149.009 204.682H135.924C135.638 204.68 135.354 204.736 135.09 204.848C134.826 204.96 134.588 205.124 134.39 205.331C134.192 205.538 134.038 205.783 133.938 206.052C133.838 206.32 133.794 206.606 133.809 206.893L134.401 219.927C134.434 220.525 134.696 221.087 135.131 221.498C135.566 221.91 136.143 222.138 136.742 222.137Z"
        fill="#407BFF" />
    <path
        d="M116.838 222.137H129.872C130.159 222.139 130.443 222.083 130.707 221.971C130.97 221.859 131.209 221.695 131.407 221.488C131.605 221.281 131.758 221.036 131.858 220.767C131.958 220.499 132.002 220.213 131.987 219.927L131.423 206.893C131.392 206.3 131.136 205.741 130.707 205.331C130.279 204.92 129.71 204.688 129.117 204.682H116.077C115.791 204.68 115.507 204.736 115.244 204.848C114.98 204.96 114.742 205.124 114.545 205.331C114.347 205.539 114.194 205.784 114.095 206.052C113.995 206.321 113.952 206.607 113.968 206.893L114.532 219.927C114.564 220.519 114.821 221.076 115.249 221.487C115.677 221.897 116.245 222.13 116.838 222.137Z"
        fill="#407BFF" />
    <path
        d="M96.9347 222.137H109.98C110.266 222.139 110.55 222.083 110.813 221.971C111.077 221.859 111.315 221.695 111.512 221.488C111.71 221.281 111.863 221.035 111.962 220.767C112.062 220.498 112.105 220.212 112.089 219.927L111.525 206.893C111.491 206.3 111.234 205.742 110.804 205.332C110.375 204.922 109.807 204.689 109.213 204.682H96.1733C95.8871 204.68 95.6035 204.736 95.34 204.848C95.0764 204.96 94.8386 205.124 94.641 205.331C94.4434 205.539 94.2903 205.784 94.191 206.052C94.0918 206.321 94.0485 206.607 94.0639 206.893L94.6279 219.927C94.6621 220.518 94.9189 221.075 95.3468 221.485C95.7747 221.896 96.342 222.128 96.9347 222.137Z"
        fill="#407BFF" />
    <path
        d="M77.0311 222.137H90.0708C90.3571 222.139 90.6406 222.083 90.9042 221.971C91.1677 221.859 91.4056 221.695 91.6032 221.488C91.8007 221.281 91.9539 221.035 92.0531 220.767C92.1523 220.498 92.1956 220.212 92.1802 219.927L91.6162 206.893C91.5833 206.299 91.3261 205.741 90.8967 205.33C90.4673 204.92 89.8978 204.688 89.3038 204.682H76.2698C75.9833 204.68 75.6994 204.736 75.4356 204.848C75.1718 204.96 74.9336 205.124 74.7356 205.331C74.5376 205.538 74.3839 205.783 74.284 206.052C74.1841 206.32 74.1402 206.606 74.1548 206.893L74.7469 219.927C74.7782 220.515 75.031 221.071 75.4547 221.481C75.8784 221.891 76.4416 222.125 77.0311 222.137Z"
        fill="#407BFF" />
    <g opacity="0.8">
        <path
            d="M176.532 222.137H189.583C189.869 222.139 190.153 222.082 190.416 221.971C190.68 221.859 190.918 221.694 191.115 221.487C191.313 221.28 191.466 221.035 191.565 220.766C191.665 220.498 191.708 220.212 191.692 219.926L191.128 206.892C191.094 206.299 190.837 205.742 190.407 205.331C189.978 204.921 189.41 204.689 188.816 204.681H175.776C175.49 204.679 175.206 204.736 174.943 204.848C174.679 204.959 174.442 205.124 174.244 205.331C174.046 205.538 173.893 205.783 173.794 206.052C173.695 206.32 173.652 206.606 173.667 206.892L174.231 219.926C174.264 220.517 174.519 221.074 174.946 221.484C175.373 221.895 175.94 222.128 176.532 222.137Z"
            fill="#FAFAFA" />
        <path
            d="M156.64 222.137H169.679C169.966 222.139 170.249 222.082 170.513 221.971C170.776 221.859 171.014 221.694 171.212 221.487C171.409 221.28 171.563 221.035 171.662 220.766C171.761 220.498 171.804 220.212 171.789 219.926L171.225 206.892C171.192 206.299 170.935 205.74 170.505 205.33C170.076 204.919 169.506 204.687 168.912 204.681H155.878C155.592 204.679 155.307 204.735 155.043 204.846C154.779 204.957 154.541 205.122 154.342 205.329C154.144 205.536 153.991 205.782 153.891 206.051C153.791 206.319 153.748 206.606 153.763 206.892L154.327 219.926C154.359 220.52 154.616 221.079 155.045 221.49C155.475 221.901 156.045 222.132 156.64 222.137Z"
            fill="#FAFAFA" />
        <path
            d="M136.742 222.137H149.776C150.062 222.139 150.346 222.082 150.609 221.971C150.873 221.859 151.111 221.694 151.308 221.487C151.506 221.28 151.659 221.035 151.758 220.766C151.857 220.498 151.901 220.212 151.885 219.926L151.321 206.892C151.288 206.299 151.031 205.74 150.602 205.33C150.172 204.919 149.603 204.687 149.009 204.681H135.924C135.638 204.679 135.354 204.736 135.09 204.848C134.826 204.959 134.588 205.124 134.39 205.331C134.192 205.538 134.038 205.783 133.938 206.051C133.838 206.32 133.794 206.606 133.809 206.892L134.401 219.926C134.434 220.524 134.696 221.087 135.131 221.498C135.566 221.909 136.143 222.138 136.742 222.137Z"
            fill="#FAFAFA" />
        <path
            d="M116.838 222.137H129.872C130.159 222.139 130.443 222.082 130.707 221.971C130.97 221.859 131.209 221.695 131.407 221.488C131.605 221.281 131.758 221.035 131.858 220.767C131.958 220.498 132.002 220.212 131.987 219.926L131.423 206.892C131.392 206.299 131.136 205.741 130.707 205.33C130.279 204.92 129.71 204.688 129.117 204.681H116.077C115.791 204.679 115.507 204.736 115.244 204.848C114.98 204.959 114.742 205.124 114.545 205.331C114.347 205.538 114.194 205.783 114.095 206.052C113.995 206.32 113.952 206.606 113.968 206.892L114.532 219.926C114.564 220.518 114.821 221.076 115.249 221.486C115.677 221.897 116.245 222.129 116.838 222.137Z"
            fill="#FAFAFA" />
        <path
            d="M96.9347 222.137H109.98C110.266 222.139 110.55 222.082 110.813 221.971C111.077 221.859 111.315 221.694 111.512 221.487C111.71 221.28 111.863 221.035 111.962 220.766C112.062 220.498 112.105 220.212 112.089 219.926L111.525 206.892C111.491 206.299 111.234 205.742 110.804 205.331C110.375 204.921 109.807 204.689 109.213 204.681H96.1733C95.8871 204.679 95.6035 204.736 95.34 204.848C95.0764 204.959 94.8386 205.124 94.641 205.331C94.4434 205.538 94.2903 205.783 94.191 206.052C94.0918 206.32 94.0485 206.606 94.0639 206.892L94.6279 219.926C94.6621 220.518 94.9189 221.075 95.3468 221.485C95.7747 221.895 96.342 222.128 96.9347 222.137Z"
            fill="#FAFAFA" />
        <path
            d="M77.0311 222.137H90.0708C90.3571 222.139 90.6406 222.082 90.9042 221.971C91.1677 221.859 91.4056 221.694 91.6032 221.487C91.8007 221.28 91.9539 221.035 92.0531 220.766C92.1523 220.498 92.1956 220.212 92.1802 219.926L91.6162 206.892C91.5833 206.299 91.3261 205.74 90.8967 205.33C90.4673 204.919 89.8978 204.687 89.3038 204.681H76.2698C75.9833 204.679 75.6994 204.736 75.4356 204.848C75.1718 204.959 74.9336 205.124 74.7356 205.331C74.5376 205.538 74.3839 205.783 74.284 206.051C74.1841 206.32 74.1402 206.606 74.1548 206.892L74.7469 219.926C74.7782 220.515 75.031 221.07 75.4547 221.48C75.8784 221.89 76.4416 222.125 77.0311 222.137Z"
            fill="#FAFAFA" />
    </g>
    <path
        d="M180.226 153.656C185.032 153.656 188.799 148.067 188.799 140.933C188.799 133.798 185.032 128.214 180.226 128.214C175.421 128.214 171.648 133.804 171.648 140.933C171.67 141.267 171.818 141.58 172.063 141.81C172.307 142.039 172.63 142.166 172.965 142.166C173.3 142.166 173.622 142.039 173.867 141.81C174.112 141.58 174.26 141.267 174.282 140.933C174.282 135.467 177 130.843 180.226 130.843C183.452 130.843 186.171 135.467 186.171 140.933C186.171 146.398 183.447 151.023 180.226 151.023C180.046 151.011 179.865 151.036 179.695 151.097C179.525 151.158 179.37 151.253 179.238 151.376C179.106 151.5 179.001 151.649 178.929 151.815C178.857 151.98 178.82 152.159 178.82 152.339C178.82 152.52 178.857 152.699 178.929 152.864C179.001 153.03 179.106 153.179 179.238 153.303C179.37 153.426 179.525 153.521 179.695 153.582C179.865 153.643 180.046 153.668 180.226 153.656Z"
        fill="#407BFF" />
    <path
        d="M160.323 153.656C165.128 153.656 168.896 148.067 168.896 140.933C168.896 133.798 165.128 128.214 160.323 128.214C155.517 128.214 151.716 133.804 151.716 140.933C151.738 141.267 151.886 141.58 152.131 141.81C152.375 142.039 152.698 142.166 153.033 142.166C153.368 142.166 153.691 142.039 153.935 141.81C154.18 141.58 154.328 141.267 154.35 140.933C154.35 135.467 157.068 130.843 160.295 130.843C163.521 130.843 166.239 135.467 166.239 140.933C166.239 146.398 163.515 151.023 160.295 151.023C159.96 151.044 159.647 151.193 159.418 151.437C159.188 151.682 159.061 152.004 159.061 152.339C159.061 152.675 159.188 152.997 159.418 153.242C159.647 153.486 159.96 153.635 160.295 153.656H160.323Z"
        fill="#407BFF" />
    <path
        d="M140.436 153.656C145.247 153.656 149.015 148.067 149.015 140.933C149.015 133.798 145.247 128.214 140.436 128.214C135.625 128.214 131.863 133.804 131.863 140.933C131.863 141.281 132.002 141.615 132.248 141.862C132.495 142.108 132.829 142.247 133.177 142.247C133.526 142.247 133.86 142.108 134.107 141.862C134.353 141.615 134.492 141.281 134.492 140.933C134.492 135.467 137.216 130.843 140.436 130.843C143.657 130.843 146.381 135.467 146.381 140.933C146.381 146.398 143.657 151.023 140.436 151.023C140.102 151.044 139.788 151.193 139.559 151.437C139.33 151.682 139.203 152.004 139.203 152.339C139.203 152.675 139.33 152.997 139.559 153.242C139.788 153.486 140.102 153.635 140.436 153.656Z"
        fill="#407BFF" />
    <path
        d="M120.516 153.656C125.326 153.656 129.094 148.067 129.094 140.933C129.094 133.798 125.326 128.214 120.516 128.214C115.705 128.214 111.943 133.804 111.943 140.933C111.943 141.281 112.081 141.615 112.328 141.862C112.574 142.108 112.908 142.247 113.257 142.247C113.605 142.247 113.94 142.108 114.186 141.862C114.433 141.615 114.571 141.281 114.571 140.933C114.571 135.467 117.295 130.843 120.516 130.843C123.736 130.843 126.46 135.467 126.46 140.933C126.46 146.398 123.742 151.023 120.516 151.023C120.181 151.044 119.868 151.193 119.639 151.437C119.409 151.682 119.282 152.004 119.282 152.339C119.282 152.675 119.409 152.997 119.639 153.242C119.868 153.486 120.181 153.635 120.516 153.656Z"
        fill="#407BFF" />
    <path
        d="M100.618 153.656C105.423 153.656 109.19 148.067 109.19 140.933C109.19 133.798 105.423 128.214 100.618 128.214C95.8123 128.214 92.0392 133.804 92.0392 140.933C92.0611 141.267 92.2093 141.58 92.4539 141.81C92.6985 142.039 93.021 142.166 93.3561 142.166C93.6912 142.166 94.0138 142.039 94.2583 141.81C94.5029 141.58 94.6512 141.267 94.6731 140.933C94.6731 135.467 97.3915 130.843 100.618 130.843C103.844 130.843 106.562 135.467 106.562 140.933C106.562 146.398 103.838 151.023 100.618 151.023C100.437 151.011 100.257 151.036 100.087 151.097C99.9167 151.158 99.761 151.253 99.6292 151.376C99.4974 151.5 99.3923 151.649 99.3205 151.815C99.2487 151.98 99.2116 152.159 99.2116 152.339C99.2116 152.52 99.2487 152.699 99.3205 152.864C99.3923 153.03 99.4974 153.179 99.6292 153.303C99.761 153.426 99.9167 153.521 100.087 153.582C100.257 153.643 100.437 153.668 100.618 153.656Z"
        fill="#407BFF" />
    <path
        d="M80.7141 153.656C85.5193 153.656 89.2869 148.067 89.2869 140.933C89.2869 133.798 85.5193 128.214 80.7141 128.214C75.9088 128.214 72.1356 133.804 72.1356 140.933C72.1575 141.267 72.3058 141.58 72.5504 141.81C72.7949 142.039 73.1175 142.166 73.4526 142.166C73.7877 142.166 74.1102 142.039 74.3548 141.81C74.5993 141.58 74.7476 141.267 74.7695 140.933C74.7695 135.467 77.4936 130.843 80.7141 130.843C83.9345 130.843 86.6586 135.467 86.6586 140.933C86.6586 146.398 83.9345 151.023 80.7141 151.023C80.3797 151.044 80.0662 151.193 79.8371 151.437C79.608 151.682 79.4805 152.004 79.4805 152.339C79.4805 152.675 79.608 152.997 79.8371 153.242C80.0662 153.486 80.3797 153.635 80.7141 153.656Z"
        fill="#407BFF" />
    <g opacity="0.3">
        <path
            d="M180.226 153.656C185.032 153.656 188.799 148.067 188.799 140.933C188.799 133.798 185.032 128.214 180.226 128.214C175.421 128.214 171.648 133.804 171.648 140.933C171.67 141.267 171.818 141.58 172.063 141.81C172.307 142.039 172.63 142.166 172.965 142.166C173.3 142.166 173.622 142.039 173.867 141.81C174.112 141.58 174.26 141.267 174.282 140.933C174.282 135.467 177 130.843 180.226 130.843C183.452 130.843 186.171 135.467 186.171 140.933C186.171 146.398 183.447 151.023 180.226 151.023C180.046 151.011 179.865 151.036 179.695 151.097C179.525 151.158 179.37 151.253 179.238 151.376C179.106 151.5 179.001 151.649 178.929 151.815C178.857 151.98 178.82 152.159 178.82 152.339C178.82 152.52 178.857 152.699 178.929 152.864C179.001 153.03 179.106 153.179 179.238 153.303C179.37 153.426 179.525 153.521 179.695 153.582C179.865 153.643 180.046 153.668 180.226 153.656Z"
            fill="black" />
        <path
            d="M160.323 153.656C165.128 153.656 168.896 148.067 168.896 140.933C168.896 133.798 165.128 128.214 160.323 128.214C155.517 128.214 151.716 133.804 151.716 140.933C151.738 141.267 151.886 141.58 152.131 141.81C152.375 142.039 152.698 142.166 153.033 142.166C153.368 142.166 153.691 142.039 153.935 141.81C154.18 141.58 154.328 141.267 154.35 140.933C154.35 135.467 157.068 130.843 160.295 130.843C163.521 130.843 166.239 135.467 166.239 140.933C166.239 146.398 163.515 151.023 160.295 151.023C159.96 151.044 159.647 151.193 159.418 151.437C159.188 151.682 159.061 152.004 159.061 152.339C159.061 152.675 159.188 152.997 159.418 153.242C159.647 153.486 159.96 153.635 160.295 153.656H160.323Z"
            fill="black" />
        <path
            d="M140.436 153.656C145.247 153.656 149.015 148.067 149.015 140.933C149.015 133.798 145.247 128.214 140.436 128.214C135.625 128.214 131.863 133.804 131.863 140.933C131.863 141.281 132.002 141.615 132.248 141.862C132.495 142.108 132.829 142.247 133.177 142.247C133.526 142.247 133.86 142.108 134.107 141.862C134.353 141.615 134.492 141.281 134.492 140.933C134.492 135.467 137.216 130.843 140.436 130.843C143.657 130.843 146.381 135.467 146.381 140.933C146.381 146.398 143.657 151.023 140.436 151.023C140.102 151.044 139.788 151.193 139.559 151.437C139.33 151.682 139.203 152.004 139.203 152.339C139.203 152.675 139.33 152.997 139.559 153.242C139.788 153.486 140.102 153.635 140.436 153.656Z"
            fill="black" />
        <path
            d="M120.516 153.656C125.326 153.656 129.094 148.067 129.094 140.933C129.094 133.798 125.326 128.214 120.516 128.214C115.705 128.214 111.943 133.804 111.943 140.933C111.943 141.281 112.081 141.615 112.328 141.862C112.574 142.108 112.908 142.247 113.257 142.247C113.605 142.247 113.94 142.108 114.186 141.862C114.433 141.615 114.571 141.281 114.571 140.933C114.571 135.467 117.295 130.843 120.516 130.843C123.736 130.843 126.46 135.467 126.46 140.933C126.46 146.398 123.742 151.023 120.516 151.023C120.181 151.044 119.868 151.193 119.639 151.437C119.409 151.682 119.282 152.004 119.282 152.339C119.282 152.675 119.409 152.997 119.639 153.242C119.868 153.486 120.181 153.635 120.516 153.656Z"
            fill="black" />
        <path
            d="M100.618 153.656C105.423 153.656 109.19 148.067 109.19 140.933C109.19 133.798 105.423 128.214 100.618 128.214C95.8123 128.214 92.0392 133.804 92.0392 140.933C92.0611 141.267 92.2093 141.58 92.4539 141.81C92.6985 142.039 93.021 142.166 93.3561 142.166C93.6912 142.166 94.0138 142.039 94.2583 141.81C94.5029 141.58 94.6512 141.267 94.6731 140.933C94.6731 135.467 97.3915 130.843 100.618 130.843C103.844 130.843 106.562 135.467 106.562 140.933C106.562 146.398 103.838 151.023 100.618 151.023C100.437 151.011 100.257 151.036 100.087 151.097C99.9167 151.158 99.761 151.253 99.6292 151.376C99.4974 151.5 99.3923 151.649 99.3205 151.815C99.2487 151.98 99.2116 152.159 99.2116 152.339C99.2116 152.52 99.2487 152.699 99.3205 152.864C99.3923 153.03 99.4974 153.179 99.6292 153.303C99.761 153.426 99.9167 153.521 100.087 153.582C100.257 153.643 100.437 153.668 100.618 153.656Z"
            fill="black" />
        <path
            d="M80.7141 153.656C85.5193 153.656 89.2869 148.067 89.2869 140.933C89.2869 133.798 85.5193 128.214 80.7141 128.214C75.9088 128.214 72.1356 133.804 72.1356 140.933C72.1575 141.267 72.3058 141.58 72.5504 141.81C72.7949 142.039 73.1175 142.166 73.4526 142.166C73.7877 142.166 74.1102 142.039 74.3548 141.81C74.5993 141.58 74.7476 141.267 74.7695 140.933C74.7695 135.467 77.4936 130.843 80.7141 130.843C83.9345 130.843 86.6586 135.467 86.6586 140.933C86.6586 146.398 83.9345 151.023 80.7141 151.023C80.3797 151.044 80.0662 151.193 79.8371 151.437C79.608 151.682 79.4805 152.004 79.4805 152.339C79.4805 152.675 79.608 152.997 79.8371 153.242C80.0662 153.486 80.3797 153.635 80.7141 153.656Z"
            fill="black" />
    </g>
    <path
        d="M119.185 182.409C123.787 181.496 128.953 182.562 130.797 187.412C132.281 191.315 130.38 195.545 126.285 196.577C122.676 197.485 116.449 196.374 115.163 192.212C113.691 187.451 119.675 185.906 123.031 185.624C124.041 185.539 124.035 187.119 123.031 187.203C121.503 187.333 119.754 187.418 118.401 188.258C115.581 190.023 116.742 192.855 119.145 194.208C121.548 195.562 125.231 195.9 127.605 194.4C130.199 192.747 130.284 189.115 128.733 186.746C126.697 183.616 122.98 183.267 119.63 183.926C118.637 184.124 118.214 182.601 119.213 182.404L119.185 182.409Z"
        fill="#407BFF" />
    <path opacity="0.1"
        d="M119.185 182.409C123.787 181.496 128.953 182.562 130.797 187.412C132.281 191.315 130.38 195.545 126.285 196.577C122.676 197.485 116.449 196.374 115.163 192.212C113.691 187.451 119.675 185.906 123.031 185.624C124.041 185.539 124.035 187.119 123.031 187.203C121.503 187.333 119.754 187.418 118.401 188.258C115.581 190.023 116.742 192.855 119.145 194.208C121.548 195.562 125.231 195.9 127.605 194.4C130.199 192.747 130.284 189.115 128.733 186.746C126.697 183.616 122.98 183.267 119.63 183.926C118.637 184.124 118.214 182.601 119.213 182.404L119.185 182.409Z"
        fill="#FAFAFA" />
    <path
        d="M169.961 164.243C165.56 170.078 160.653 175.513 155.297 180.486C154.553 181.18 153.431 180.063 154.169 179.358C159.433 174.483 164.259 169.156 168.591 163.436C169.194 162.635 170.565 163.436 169.95 164.232L169.961 164.243Z"
        fill="#407BFF" />
    <path
        d="M168.331 179.826C165.004 173.91 159.178 168.862 153.667 164.998C152.844 164.434 153.628 163.047 154.463 163.633C160.193 167.66 166.216 172.86 169.691 179.025C169.786 179.205 169.808 179.414 169.753 179.61C169.698 179.805 169.569 179.972 169.394 180.075C169.219 180.179 169.011 180.21 168.813 180.164C168.615 180.117 168.442 179.996 168.331 179.826Z"
        fill="#407BFF" />
    <g opacity="0.2">
        <path
            d="M169.961 164.243C165.56 170.078 160.653 175.513 155.297 180.486C154.553 181.18 153.431 180.063 154.169 179.358C159.433 174.483 164.259 169.156 168.591 163.436C169.194 162.635 170.565 163.436 169.95 164.232L169.961 164.243Z"
            fill="black" />
        <path
            d="M168.331 179.826C165.004 173.91 159.178 168.862 153.667 164.999C152.844 164.435 153.628 163.047 154.463 163.634C160.193 167.661 166.216 172.861 169.691 179.026C169.786 179.205 169.808 179.415 169.753 179.61C169.698 179.806 169.569 179.973 169.394 180.076C169.219 180.179 169.011 180.211 168.813 180.164C168.615 180.118 168.442 179.997 168.331 179.826Z"
            fill="black" />
    </g>
    <path
        d="M107.233 169.29H96.9404C96.7432 169.274 96.5595 169.184 96.4256 169.038C96.2917 168.892 96.2174 168.701 96.2174 168.504C96.2174 168.306 96.2917 168.115 96.4256 167.969C96.5595 167.824 96.7432 167.734 96.9404 167.717H107.233C107.431 167.734 107.614 167.824 107.748 167.969C107.882 168.115 107.956 168.306 107.956 168.504C107.956 168.701 107.882 168.892 107.748 169.038C107.614 169.184 107.431 169.274 107.233 169.29Z"
        fill="#407BFF" />
    <path
        d="M107.352 172.217H101.385C101.175 172.217 100.974 172.134 100.826 171.986C100.678 171.838 100.595 171.637 100.595 171.428C100.595 171.218 100.678 171.018 100.826 170.869C100.974 170.721 101.175 170.638 101.385 170.638H107.352C107.561 170.638 107.762 170.721 107.91 170.869C108.058 171.018 108.141 171.218 108.141 171.428C108.141 171.637 108.058 171.838 107.91 171.986C107.762 172.134 107.561 172.217 107.352 172.217Z"
        fill="#407BFF" />
    <g opacity="0.1">
        <path
            d="M107.233 169.29H96.9404C96.7432 169.274 96.5595 169.184 96.4256 169.038C96.2917 168.892 96.2174 168.701 96.2174 168.504C96.2174 168.306 96.2917 168.115 96.4256 167.969C96.5595 167.824 96.7432 167.734 96.9404 167.717H107.233C107.431 167.734 107.614 167.824 107.748 167.969C107.882 168.115 107.956 168.306 107.956 168.504C107.956 168.701 107.882 168.892 107.748 169.038C107.614 169.184 107.431 169.274 107.233 169.29Z"
            fill="#FAFAFA" />
        <path
            d="M107.352 172.217H101.385C101.175 172.217 100.974 172.134 100.826 171.986C100.678 171.838 100.595 171.637 100.595 171.428C100.595 171.218 100.678 171.018 100.826 170.869C100.974 170.721 101.175 170.638 101.385 170.638H107.352C107.561 170.638 107.762 170.721 107.91 170.869C108.058 171.018 108.141 171.218 108.141 171.428C108.141 171.637 108.058 171.838 107.91 171.986C107.762 172.134 107.561 172.217 107.352 172.217Z"
            fill="#FAFAFA" />
    </g>
    <path
        d="M168.884 209.695H160.058C159.848 209.695 159.647 209.612 159.499 209.464C159.351 209.316 159.268 209.115 159.268 208.906C159.268 208.696 159.351 208.496 159.499 208.347C159.647 208.199 159.848 208.116 160.058 208.116H168.884C169.094 208.116 169.294 208.199 169.443 208.347C169.591 208.496 169.674 208.696 169.674 208.906C169.674 209.115 169.591 209.316 169.443 209.464C169.294 209.612 169.094 209.695 168.884 209.695Z"
        fill="#407BFF" />
    <path
        d="M169.2 213.085H157.751C157.541 213.085 157.341 213.002 157.192 212.854C157.044 212.706 156.961 212.505 156.961 212.295C156.961 212.086 157.044 211.885 157.192 211.737C157.341 211.589 157.541 211.506 157.751 211.506H169.2C169.409 211.506 169.61 211.589 169.758 211.737C169.906 211.885 169.99 212.086 169.99 212.295C169.99 212.505 169.906 212.706 169.758 212.854C169.61 213.002 169.409 213.085 169.2 213.085Z"
        fill="#407BFF" />
    <path
        d="M169.2 216.576H163.475C163.266 216.576 163.065 216.493 162.917 216.345C162.769 216.197 162.686 215.996 162.686 215.787C162.686 215.577 162.769 215.376 162.917 215.228C163.065 215.08 163.266 214.997 163.475 214.997H169.2C169.409 214.997 169.61 215.08 169.758 215.228C169.906 215.376 169.99 215.577 169.99 215.787C169.99 215.996 169.906 216.197 169.758 216.345C169.61 216.493 169.409 216.576 169.2 216.576Z"
        fill="#407BFF" />
    <g opacity="0.1">
        <path
            d="M168.884 209.695H160.058C159.848 209.695 159.647 209.612 159.499 209.464C159.351 209.316 159.268 209.115 159.268 208.906C159.268 208.696 159.351 208.496 159.499 208.347C159.647 208.199 159.848 208.116 160.058 208.116H168.884C169.094 208.116 169.294 208.199 169.443 208.347C169.591 208.496 169.674 208.696 169.674 208.906C169.674 209.115 169.591 209.316 169.443 209.464C169.294 209.612 169.094 209.695 168.884 209.695Z"
            fill="#FAFAFA" />
        <path
            d="M169.2 213.085H157.751C157.541 213.085 157.341 213.002 157.192 212.854C157.044 212.706 156.961 212.505 156.961 212.295C156.961 212.086 157.044 211.885 157.192 211.737C157.341 211.589 157.541 211.506 157.751 211.506H169.2C169.409 211.506 169.61 211.589 169.758 211.737C169.906 211.885 169.99 212.086 169.99 212.295C169.99 212.505 169.906 212.706 169.758 212.854C169.61 213.002 169.409 213.085 169.2 213.085Z"
            fill="#FAFAFA" />
        <path
            d="M169.2 216.576H163.475C163.266 216.576 163.065 216.493 162.917 216.345C162.769 216.197 162.686 215.996 162.686 215.787C162.686 215.577 162.769 215.376 162.917 215.228C163.065 215.08 163.266 214.997 163.475 214.997H169.2C169.409 214.997 169.61 215.08 169.758 215.228C169.906 215.376 169.99 215.577 169.99 215.787C169.99 215.996 169.906 216.197 169.758 216.345C169.61 216.493 169.409 216.576 169.2 216.576Z"
            fill="#FAFAFA" />
    </g>
    <path
        d="M231.133 121.142L228.465 121.023L229.672 126.099C230.624 125.448 231.492 124.68 232.255 123.815C232.475 123.556 232.585 123.221 232.559 122.882C232.534 122.543 232.376 122.228 232.12 122.005L231.133 121.142Z"
        fill="#E4897B" />
    <path d="M225.369 123.759L226.564 127.887L229.672 126.088L228.465 121.023L225.369 123.759Z"
        fill="#E4897B" />
    <path d="M225.895 99.2495L231.354 99.7549L218.834 234.971L213.375 234.465L225.895 99.2495Z"
        fill="#407BFF" />
    <path opacity="0.3"
        d="M225.895 99.2495L231.354 99.7549L218.834 234.971L213.375 234.465L225.895 99.2495Z"
        fill="black" />
    <path d="M214.975 98.2358L220.434 98.7412L207.914 233.957L202.455 233.452L214.975 98.2358Z"
        fill="#407BFF" />
    <path opacity="0.3"
        d="M214.975 98.2358L220.434 98.7412L207.914 233.957L202.455 233.452L214.975 98.2358Z"
        fill="black" />
    <path d="M220.432 98.7426L225.891 99.248L213.371 234.464L207.912 233.959L220.432 98.7426Z"
        fill="#407BFF" />
    <path opacity="0.1"
        d="M220.432 98.7426L225.891 99.248L213.371 234.464L207.912 233.959L220.432 98.7426Z"
        fill="black" />
    <path d="M221.584 89.2871L226.497 89.7439L231.353 99.7549L214.974 98.2378L221.584 89.2871Z"
        fill="#407BFF" />
    <g opacity="0.8">
        <path d="M221.584 89.2871L226.497 89.7439L231.353 99.7549L214.974 98.2378L221.584 89.2871Z"
            fill="#FAFAFA" />
    </g>
    <path d="M224.416 85.4517L226.497 89.7437L221.584 89.2869L224.416 85.4517Z" fill="#263238" />
    <path
        d="M183.142 93.0938C182.578 93.6578 182.11 94.1935 181.625 94.7858C181.14 95.3779 180.677 95.9138 180.215 96.4778C179.284 97.6058 178.416 98.7958 177.57 100.008C175.826 102.474 174.354 105.121 173.182 107.904C173.041 108.265 172.911 108.643 172.776 109.032L172.573 109.596C172.461 109.934 172.382 110.281 172.336 110.634C172.213 111.757 172.362 112.892 172.77 113.945C173.379 115.499 174.232 116.946 175.297 118.231C177.18 120.536 179.348 122.592 181.749 124.351L183.875 122.095C182.202 120.003 180.672 117.8 179.296 115.501C178.693 114.52 178.229 113.458 177.919 112.349C177.834 112.076 177.824 111.786 177.891 111.508L178.083 111.091C178.213 110.815 178.325 110.527 178.466 110.256C179.66 107.94 181.057 105.733 182.64 103.663C183.43 102.586 184.264 101.537 185.11 100.488C185.533 99.9689 185.962 99.45 186.402 98.9424L187.688 97.4591L183.142 93.0938Z"
        fill="#E4897B" />
    <path d="M187.287 123.815L184.885 128.57L182.533 126.545L184.462 123.167L187.287 123.815Z"
        fill="#E4897B" />
    <path
        d="M205.386 95.8802C206.849 98.6664 208.368 101.421 209.943 104.143C210.716 105.513 211.528 106.861 212.318 108.221L213.53 110.251L213.835 110.759C213.987 111.001 214.156 111.289 214.309 111.48C214.461 111.672 214.613 111.903 214.76 112.078C214.907 112.253 215.064 112.451 215.211 112.614C216.35 113.855 217.563 115.027 218.843 116.122C220.078 117.177 221.314 118.203 222.588 119.179C225.109 121.147 227.698 122.98 230.383 124.729L232.317 122.292L225.634 115.71C224.54 114.582 223.434 113.522 222.391 112.405C221.366 111.354 220.4 110.247 219.498 109.089C219.388 108.954 219.293 108.824 219.21 108.7C219.114 108.565 219.046 108.452 218.979 108.339C218.92 108.248 218.868 108.154 218.821 108.057L218.561 107.532L217.518 105.406C216.802 104.002 216.102 102.586 215.375 101.193C213.935 98.3844 212.431 95.6076 210.863 92.8628L205.386 95.8802Z"
        fill="#E4897B" />
    <path
        d="M189.555 76.8282C189.628 77.1553 189.51 77.4655 189.301 77.5219C189.092 77.5783 188.861 77.3527 188.788 77.0256C188.714 76.6985 188.838 76.3883 189.047 76.3319C189.256 76.2755 189.504 76.5011 189.555 76.8282Z"
        fill="#263238" />
    <path
        d="M189.544 77.46C189.367 78.56 189.044 79.6317 188.585 80.6466C188.844 80.7493 189.123 80.794 189.402 80.7774C189.681 80.7608 189.952 80.6835 190.198 80.5507L189.544 77.46Z"
        fill="#DE5753" />
    <path
        d="M188.692 74.843C188.732 74.8431 188.771 74.8313 188.805 74.8092C189.013 74.6818 189.249 74.6071 189.493 74.5914C189.737 74.5757 189.98 74.6194 190.203 74.7189C190.252 74.7379 190.306 74.7373 190.355 74.7174C190.403 74.6974 190.442 74.6596 190.463 74.6117C190.482 74.563 190.481 74.5089 190.461 74.4605C190.441 74.4122 190.404 74.3734 190.356 74.3523C190.071 74.2299 189.76 74.1783 189.451 74.2018C189.141 74.2254 188.842 74.3235 188.579 74.4877C188.558 74.5018 188.539 74.5202 188.525 74.5416C188.511 74.563 188.501 74.587 188.496 74.6123C188.492 74.6375 188.492 74.6635 188.498 74.6886C188.503 74.7137 188.513 74.7374 188.528 74.7584C188.547 74.7847 188.571 74.8062 188.6 74.8209C188.628 74.8357 188.66 74.8432 188.692 74.843Z"
        fill="#263238" />
    <path
        d="M200.964 78.0747C200.254 81.109 199.447 86.6588 201.489 88.6836C201.489 88.6836 200.541 91.7574 194.907 91.7574C188.703 91.7574 192.087 88.6836 192.087 88.6836C195.499 87.877 195.511 85.3672 195.014 83.0154L200.964 78.0747Z"
        fill="#E4897B" />
    <path
        d="M202.256 89.7382C202.741 88.7682 203.271 87.6514 202.256 87.3018C201.162 86.9182 195.088 86.5291 192.961 87.2454C192.395 87.3969 191.91 87.7631 191.608 88.2664C191.307 88.7697 191.214 89.3704 191.348 89.9413L202.256 89.7382Z"
        fill="#407BFF" />
    <path opacity="0.6"
        d="M202.256 89.7382C202.741 88.7682 203.271 87.6514 202.256 87.3018C201.162 86.9182 195.088 86.5291 192.961 87.2454C192.395 87.3969 191.91 87.7631 191.608 88.2664C191.307 88.7697 191.214 89.3704 191.348 89.9413L202.256 89.7382Z"
        fill="#FAFAFA" />
    <path
        d="M210.372 231.24C210.736 231.238 211.099 231.199 211.455 231.122C211.473 231.119 211.49 231.11 211.503 231.097C211.516 231.084 211.525 231.067 211.528 231.049C211.532 231.03 211.53 231.01 211.523 230.992C211.516 230.974 211.504 230.958 211.489 230.947C211.444 230.913 210.361 230.135 209.729 230.27C209.661 230.282 209.596 230.309 209.54 230.349C209.483 230.389 209.436 230.441 209.402 230.501C209.351 230.569 209.324 230.651 209.324 230.735C209.324 230.82 209.351 230.902 209.402 230.97C209.537 231.19 209.949 231.24 210.372 231.24ZM211.179 230.981C210.558 231.082 209.712 231.082 209.543 230.851C209.543 230.851 209.475 230.761 209.571 230.597C209.592 230.561 209.62 230.531 209.654 230.507C209.689 230.484 209.728 230.468 209.769 230.462C210.281 230.495 210.771 230.68 211.179 230.992V230.981Z"
        fill="#FAFAFA" />
    <path
        d="M211.432 231.139H211.483C211.498 231.13 211.51 231.118 211.518 231.103C211.526 231.088 211.529 231.071 211.528 231.054C211.528 231.003 211.477 229.808 211.009 229.413C210.953 229.362 210.887 229.325 210.815 229.302C210.743 229.28 210.667 229.273 210.592 229.283C210.516 229.283 210.442 229.309 210.384 229.358C210.325 229.406 210.285 229.474 210.27 229.548C210.18 230.011 210.97 230.913 211.398 231.144L211.432 231.139ZM210.66 229.447C210.741 229.448 210.819 229.478 210.88 229.531C211.156 229.91 211.31 230.365 211.32 230.834C210.913 230.513 210.412 229.83 210.462 229.559C210.462 229.531 210.462 229.464 210.615 229.447H210.66Z"
        fill="#FAFAFA" />
    <path
        d="M185.488 231.24C185.916 231.24 186.343 231.2 186.763 231.122C186.783 231.118 186.801 231.109 186.815 231.095C186.829 231.081 186.839 231.063 186.842 231.043C186.845 231.023 186.843 231.003 186.835 230.985C186.826 230.967 186.813 230.952 186.797 230.941C186.588 230.823 184.75 229.768 184.304 230.496C184.259 230.559 184.235 230.635 184.235 230.713C184.235 230.791 184.259 230.866 184.304 230.93C184.428 231.178 184.958 231.24 185.488 231.24ZM186.453 230.975C185.674 231.088 184.625 231.071 184.445 230.817C184.445 230.817 184.389 230.738 184.473 230.597C184.721 230.197 185.838 230.676 186.453 230.986V230.975Z"
        fill="#FAFAFA" />
    <path
        d="M186.746 231.138C186.764 231.144 186.784 231.144 186.802 231.138C186.817 231.128 186.828 231.115 186.835 231.099C186.842 231.083 186.844 231.065 186.842 231.048C186.842 231.003 186.774 229.886 186.278 229.452C186.203 229.383 186.113 229.332 186.015 229.303C185.918 229.274 185.815 229.267 185.714 229.283C185.438 229.311 185.359 229.452 185.342 229.565C185.263 230.044 186.205 230.919 186.701 231.144L186.746 231.138ZM185.798 229.446C185.924 229.445 186.045 229.491 186.137 229.576C186.433 229.939 186.605 230.388 186.628 230.856C186.131 230.552 185.5 229.858 185.539 229.571C185.539 229.542 185.539 229.469 185.742 229.446H185.798Z"
        fill="#FAFAFA" />
    <path d="M191.303 231.037H187.158L187.118 221.443H191.258L191.303 231.037Z" fill="#E4897B" />
    <path d="M216.181 231.037H212.036L210.321 221.443H214.467L216.181 231.037Z" fill="#E4897B" />
    <path
        d="M211.759 230.558H216.412C216.495 230.557 216.575 230.585 216.638 230.638C216.701 230.69 216.743 230.764 216.756 230.845L217.433 234.528C217.447 234.62 217.441 234.713 217.415 234.802C217.39 234.89 217.345 234.972 217.284 235.042C217.224 235.112 217.149 235.168 217.064 235.206C216.98 235.243 216.888 235.262 216.796 235.261C215.172 235.233 214.388 235.137 212.34 235.137C211.083 235.137 208.483 235.273 206.74 235.273C204.997 235.273 204.845 233.581 205.561 233.395C208.782 232.695 210.022 231.731 211.077 230.817C211.265 230.65 211.508 230.558 211.759 230.558Z"
        fill="#263238" />
    <path
        d="M187.203 230.558H191.715C191.797 230.557 191.877 230.585 191.94 230.638C192.003 230.69 192.045 230.764 192.059 230.845L192.736 234.528C192.752 234.619 192.747 234.712 192.723 234.801C192.698 234.89 192.655 234.972 192.595 235.042C192.535 235.112 192.461 235.168 192.377 235.206C192.293 235.244 192.202 235.263 192.11 235.261C190.48 235.233 188.128 235.137 186.075 235.137C183.672 235.137 181.597 235.273 178.782 235.273C177.09 235.273 176.679 233.581 177.395 233.395C180.666 232.684 183.317 232.611 186.182 230.885C186.485 230.683 186.839 230.569 187.203 230.558Z"
        fill="#263238" />
    <path
        d="M209.391 89.6198C213.243 90.5109 217.287 101.097 217.287 101.097L209.283 106.444C207.446 103.658 205.835 100.729 204.467 97.685C202.352 92.8402 205.46 88.7118 209.391 89.6198Z"
        fill="#407BFF" />
    <path opacity="0.7"
        d="M209.391 89.6198C213.243 90.5109 217.287 101.097 217.287 101.097L209.283 106.444C207.446 103.658 205.835 100.729 204.467 97.685C202.352 92.8402 205.46 88.7118 209.391 89.6198Z"
        fill="black" />
    <path
        d="M206.351 96.3706L209.661 106.19L209.283 106.444C209.283 106.444 207.772 104.188 206.165 101.182L206.351 96.3706Z"
        fill="#407BFF" />
    <path opacity="0.8"
        d="M206.351 96.3706L209.661 106.19L209.283 106.444C209.283 106.444 207.772 104.188 206.165 101.182L206.351 96.3706Z"
        fill="black" />
    <path
        d="M183.543 108.13C183.576 112.755 183.853 118.508 184.541 125.648H206.706C206.994 122.264 205.493 105.648 209.391 89.6195C206.953 89.147 204.487 88.8342 202.008 88.6833C198.871 88.5027 195.726 88.5027 192.589 88.6833C190.426 88.8936 188.282 89.2707 186.176 89.8113C186.176 89.8113 184.281 91.8643 183.706 101.492C183.593 103.415 183.531 105.603 183.543 108.13Z"
        fill="#407BFF" />
    <path opacity="0.7"
        d="M183.543 108.13C183.576 112.755 183.853 118.508 184.541 125.648H206.706C206.994 122.264 205.493 105.648 209.391 89.6195C206.953 89.147 204.487 88.8342 202.008 88.6833C198.871 88.5027 195.726 88.5027 192.589 88.6833C190.426 88.8936 188.282 89.2707 186.176 89.8113C186.176 89.8113 184.281 91.8643 183.706 101.492C183.593 103.415 183.531 105.603 183.543 108.13Z"
        fill="black" />
    <path
        d="M183.542 108.13C184.885 105.682 187.321 100.77 186.977 97.978L183.706 101.52C183.593 103.415 183.531 105.603 183.542 108.13Z"
        fill="#407BFF" />
    <path opacity="0.8"
        d="M183.542 108.13C184.885 105.682 187.321 100.77 186.977 97.978L183.706 101.52C183.593 103.415 183.531 105.603 183.542 108.13Z"
        fill="black" />
    <path
        d="M190.519 93.5792C190.869 97.5272 181.918 107.025 181.918 107.025L174.744 101.182C176.623 98.0111 178.874 95.0763 181.45 92.44C185.646 88.3848 190.124 89.1575 190.519 93.5792Z"
        fill="#407BFF" />
    <path opacity="0.7"
        d="M190.519 93.5792C190.869 97.5272 181.918 107.025 181.918 107.025L174.744 101.182C176.623 98.0111 178.874 95.0763 181.45 92.44C185.646 88.3848 190.124 89.1575 190.519 93.5792Z"
        fill="black" />
    <path d="M187.118 221.449L187.141 226.39H191.281L191.264 221.449H187.118Z" fill="#CE6F64" />
    <path d="M214.467 221.449H210.321L211.207 226.39H215.352L214.467 221.449Z" fill="#CE6F64" />
    <path
        d="M200.22 73.4046C200.824 77.4879 201.382 79.8342 199.814 82.4286C199.316 83.2688 198.597 83.9565 197.735 84.4173C196.874 84.8781 195.903 85.0944 194.927 85.0427C193.952 84.991 193.009 84.6733 192.201 84.124C191.393 83.5747 190.751 82.8148 190.344 81.9266C188.726 78.5426 188.004 72.4289 191.563 69.8457C192.314 69.2659 193.204 68.894 194.144 68.7675C195.085 68.641 196.042 68.7643 196.919 69.125C197.797 69.4857 198.564 70.0711 199.143 70.8224C199.723 71.5737 200.094 72.4642 200.22 73.4046Z"
        fill="#E4897B" />
    <path
        d="M187.953 71.4702C189.174 72.1368 190.517 72.5493 191.901 72.6828C192.933 77.4035 195.68 82.8348 200.124 81.2725C201.816 80.7085 203.508 76.6083 203.683 72.9705C203.976 73.3258 204.174 73.7883 204.326 73.98C204.58 72.3633 204.397 70.7082 203.796 69.186C202.566 65.7005 201.748 68.0129 200.412 65.8979C199.549 64.4992 198.015 63.7773 195.336 63.687C196.086 64.0762 196.227 64.7022 195.116 64.612C194.005 64.5217 189.261 64.2623 186.498 66.1291C188.365 66.5521 187.225 69.5131 184.733 67.9339C185.641 69.406 186.769 70.8047 187.953 71.4702Z"
        fill="#263238" />
    <path
        d="M195.093 75.9317C195.077 76.97 194.73 77.9761 194.101 78.8024C193.26 79.8853 192.296 79.3664 192.065 78.1482C191.862 77.0653 192.065 75.1928 193.114 74.5386C194.163 73.8843 195.099 74.6909 195.093 75.9317Z"
        fill="#E4897B" />
    <path
        d="M200.147 66.338C200.709 66.3023 201.255 66.1295 201.736 65.8345C202.216 65.5396 202.618 65.1316 202.905 64.646C202.905 64.646 202.978 67.951 200.147 66.338Z"
        fill="#1E2A4C" />
    <path
        d="M192.409 125.648C192.409 125.648 195.883 157.311 198.009 169.172C200.333 182.144 209.289 225.437 209.289 225.437H216.903C216.903 225.437 211.5 183.21 210.372 170.328C209.159 156.369 206.683 125.625 206.683 125.625L192.409 125.648Z"
        fill="#407BFF" />
    <path opacity="0.6"
        d="M192.409 125.648C192.409 125.648 195.883 157.311 198.009 169.172C200.333 182.144 209.289 225.437 209.289 225.437H216.903C216.903 225.437 211.5 183.21 210.372 170.328C209.159 156.369 206.683 125.625 206.683 125.625L192.409 125.648Z"
        fill="#FAFAFA" />
    <path
        d="M208.212 222.639C208.178 222.639 208.883 225.555 208.883 225.555H217.416L217.36 222.955L208.212 222.639Z"
        fill="#407BFF" />
    <path opacity="0.1"
        d="M208.212 222.639C208.178 222.639 208.883 225.555 208.883 225.555H217.416L217.36 222.955L208.212 222.639Z"
        fill="#FAFAFA" />
    <path
        d="M194.941 136.928C200.338 137.994 198.979 158.27 197.924 168.698C196.639 161.327 194.89 147.142 193.711 137.075C194.093 136.889 194.526 136.837 194.941 136.928Z"
        fill="#407BFF" />
    <path opacity="0.4"
        d="M194.941 136.928C200.338 137.994 198.979 158.27 197.924 168.698C196.639 161.327 194.89 147.142 193.711 137.075C194.093 136.889 194.526 136.837 194.941 136.928Z"
        fill="#FAFAFA" />
    <path
        d="M184.546 125.648C184.546 125.648 182.775 156.623 182.742 169.262C182.702 182.403 185.629 225.436 185.629 225.436H192.651C192.651 225.436 194.54 183.17 195.353 170.266C196.232 156.194 199.115 125.648 199.115 125.648H184.546Z"
        fill="#407BFF" />
    <path opacity="0.6"
        d="M184.546 125.648C184.546 125.648 182.775 156.623 182.742 169.262C182.702 182.403 185.629 225.436 185.629 225.436H192.651C192.651 225.436 194.54 183.17 195.353 170.266C196.232 156.194 199.115 125.648 199.115 125.648H184.546Z"
        fill="#FAFAFA" />
    <path
        d="M182.849 121.666L184.817 121.824C184.977 121.837 185.133 121.886 185.272 121.967C185.411 122.048 185.53 122.159 185.621 122.292C185.712 122.425 185.772 122.577 185.796 122.736C185.821 122.895 185.81 123.057 185.765 123.211L184.952 125.947C184.884 126.169 184.763 126.371 184.599 126.537C184.435 126.702 184.234 126.825 184.013 126.896C183.791 126.967 183.556 126.984 183.327 126.944C183.098 126.904 182.881 126.81 182.696 126.669C181.68 125.722 180.951 124.508 180.593 123.166L182.849 121.666Z"
        fill="#E4897B" />
    <path
        d="M187.293 220.394C187.312 220.392 187.329 220.382 187.342 220.368C187.354 220.353 187.361 220.335 187.361 220.315C186.583 208.409 184.778 179.595 184.812 169.262C184.812 158.687 186.097 135.033 186.504 128.034C186.504 128.024 186.503 128.015 186.5 128.006C186.497 127.997 186.492 127.989 186.486 127.982C186.479 127.975 186.472 127.97 186.463 127.966C186.455 127.962 186.445 127.96 186.436 127.96C186.417 127.96 186.4 127.967 186.386 127.98C186.372 127.992 186.364 128.01 186.363 128.028C185.979 135.027 184.721 158.682 184.671 169.262C184.637 179.6 186.442 208.415 187.22 220.327C187.22 220.336 187.222 220.345 187.225 220.354C187.229 220.363 187.235 220.37 187.242 220.377C187.249 220.383 187.257 220.388 187.266 220.391C187.274 220.394 187.284 220.395 187.293 220.394Z"
        fill="#407BFF" />
    <path opacity="0.3"
        d="M187.293 220.394C187.312 220.392 187.329 220.382 187.342 220.368C187.354 220.353 187.361 220.335 187.361 220.315C186.583 208.409 184.778 179.595 184.812 169.262C184.812 158.687 186.097 135.033 186.504 128.034C186.504 128.024 186.503 128.015 186.5 128.006C186.497 127.997 186.492 127.989 186.486 127.982C186.479 127.975 186.472 127.97 186.463 127.966C186.455 127.962 186.445 127.96 186.436 127.96C186.417 127.96 186.4 127.967 186.386 127.98C186.372 127.992 186.364 128.01 186.363 128.028C185.979 135.027 184.721 158.682 184.671 169.262C184.637 179.6 186.442 208.415 187.22 220.327C187.22 220.336 187.222 220.345 187.225 220.354C187.229 220.363 187.235 220.37 187.242 220.377C187.249 220.383 187.257 220.388 187.266 220.391C187.274 220.394 187.284 220.395 187.293 220.394Z"
        fill="#FAFAFA" />
    <path
        d="M184.389 222.639C184.355 222.639 184.671 225.555 184.671 225.555H193.209L193.542 222.955L184.389 222.639Z"
        fill="#407BFF" />
    <path opacity="0.1"
        d="M184.389 222.639C184.355 222.639 184.671 225.555 184.671 225.555H193.209L193.542 222.955L184.389 222.639Z"
        fill="#FAFAFA" />
</svg>
    