<svg
    width="54"
    height="54"
    viewBox="0 0 54 54"
    fill="none"
    xmlns="http://www.w3.org/2000/svg"
>
    <path
    fill-rule="evenodd"
    clip-rule="evenodd"
    d="M46.875 27C46.875 37.9767 37.9767 46.875 27 46.875C16.0233 46.875 7.125 37.9767 7.125 27C7.125 16.0233 16.0233 7.125 27 7.125C37.9767 7.125 46.875 16.0233 46.875 27ZM27 39.0417C26.4477 39.0417 26 38.594 26 38.0417V28H15.9583C15.406 28 14.9583 27.5523 14.9583 27C14.9583 26.4477 15.406 26 15.9583 26H26V15.9583C26 15.4061 26.4477 14.9583 27 14.9583C27.5523 14.9583 28 15.4061 28 15.9583V26H38.0417C38.594 26 39.0417 26.4477 39.0417 27C39.0417 27.5523 38.594 28 38.0417 28H28V38.0417C28 38.594 27.5523 39.0417 27 39.0417Z"
    fill="#0085FF"
    fill-opacity="0.92"
    />
</svg>